<?xml version="1.0" standalone="no"?>
<!DOCTYPE svg PUBLIC "-//W3C//DTD SVG 1.1//EN" "http://www.w3.org/Graphics/SVG/1.1/DTD/svg11.dtd" >
<svg xmlns="http://www.w3.org/2000/svg">
<metadata>
This is a custom SVG webfont generated by Font Squirrel.
Copyright   : Copyright c 2011 by Grilli Type All rights reserved
Designer    : Nol Leu
Foundry     : Grilli Type
Foundry URL : httpwwwgrillitypecom
</metadata>
<defs>
<font id="GTWalsheimRegularOblique" horiz-adv-x="565" >
<font-face units-per-em="1000" ascent="792" descent="-208" />
<missing-glyph horiz-adv-x="253" />
<glyph unicode=" "  horiz-adv-x="253" />
<glyph unicode="&#x09;" horiz-adv-x="253" />
<glyph unicode="&#xa0;" horiz-adv-x="253" />
<glyph unicode="!" horiz-adv-x="296" d="M175 704h94l-52 -491h-94zM81 54q0 16 6.5 30.5t17.5 25t25.5 16.5t30.5 6q29 0 48 -19t19 -47q0 -16 -6.5 -30.5t-18 -25.5t-26 -17.5t-30.5 -6.5q-29 0 -47.5 20t-18.5 48z" />
<glyph unicode="&#x22;" horiz-adv-x="354" d="M125 621l10 96h82l-10 -96l-35 -155h-43zM277 621l10 96h82l-10 -96l-35 -155h-44z" />
<glyph unicode="#" horiz-adv-x="550" d="M345 209h-127l-51 -209h-71l51 209h-96l7 68h105l35 146h-95l8 68h105l51 209h72l-51 -209h126l51 209h72l-51 -209h87l-8 -68h-97l-35 -146h87l-7 -68h-97l-51 -209h-71zM235 277h126l35 146h-126z" />
<glyph unicode="$" horiz-adv-x="625" d="M432 712q79 -12 122.5 -67.5t35.5 -142.5h-91q5 63 -26 97.5t-91 34.5q-29 0 -54 -8t-43.5 -23t-29 -36.5t-10.5 -47.5t9.5 -43.5t26 -30t38 -21t44.5 -16.5q41 -14 79.5 -29t68 -37t47 -54t17.5 -79q0 -45 -16 -83t-45.5 -67t-69.5 -47.5t-88 -24.5l-11 -105h-81l11 106 q-43 6 -78 24.5t-59 49t-34.5 71t-5.5 90.5h91q-4 -36 4.5 -65t27 -49.5t46.5 -31.5t63 -11q33 0 61 9.5t48.5 27t32 41.5t11.5 53q0 28 -10.5 47t-27.5 31.5t-39 21t-44 15.5q-41 13 -78.5 28t-66.5 36.5t-46.5 52.5t-17.5 78q0 43 15 78t41.5 61t63 43t78.5 23l11 106h81z " />
<glyph unicode="%" horiz-adv-x="920" d="M714 747l66 -40l-518 -753l-64 40zM603 261q3 28 16 52t33 42t47 28t58 10q33 0 58 -10.5t41.5 -29t23.5 -43t4 -51.5l-15 -135q-3 -27 -15.5 -51t-33 -42t-47.5 -28.5t-59 -10.5t-57 11t-41 29t-23 42.5t-4 51.5zM812 259q3 30 -13 52t-48 22t-53.5 -22t-24.5 -52 l-13 -133q-3 -30 13.5 -51.5t48.5 -21.5t53 21.5t24 51.5zM125 575q3 28 16 52t33 42t47 28t58 10q33 0 58 -10.5t41.5 -29t23.5 -43t4 -51.5l-15 -135q-3 -27 -15.5 -51t-33 -42t-47.5 -28.5t-59 -10.5t-57 11t-41 29t-23 42.5t-4 51.5zM335 573q3 30 -13.5 52t-48.5 22 t-53 -22t-24 -52l-14 -133q-3 -30 13.5 -51.5t48.5 -21.5t53 21.5t24 51.5z" />
<glyph unicode="&#x26;" horiz-adv-x="599" d="M378 315h233l-8 -81h-60q-6 -56 -29 -101.5t-58 -77.5t-80 -49t-95 -17q-44 0 -83 13.5t-68 38.5t-46 61.5t-17 81.5q0 36 10.5 64t29.5 50t45 38.5t57 28.5q-45 18 -69 52.5t-24 86.5q0 47 19.5 85.5t52.5 65.5t76 41.5t90 14.5q48 0 86.5 -15t64.5 -43t38 -66.5 t7 -84.5h-91q6 57 -22 92t-94 35q-60 0 -97.5 -31t-37.5 -90q0 -44 27 -73t95 -29h15l-9 -81h-15q-42 0 -73 -11.5t-51 -30.5t-29.5 -44t-9.5 -51q0 -57 38 -87t92 -30q35 0 63.5 12t49.5 34t34 52t17 65h-82z" />
<glyph unicode="'" horiz-adv-x="202" d="M125 621l10 96h82l-10 -96l-35 -155h-43z" />
<glyph unicode="(" horiz-adv-x="368" d="M415 712q-33 0 -61.5 -12.5t-50.5 -33.5t-35.5 -49.5t-16.5 -60.5l-58 -560q-3 -32 4 -60.5t24 -49.5t43 -33.5t59 -12.5l-8 -82q-54 0 -96 19t-70 51.5t-40 76t-7 91.5l58 560q5 48 26.5 91.5t56 76t80.5 51.5t100 19z" />
<glyph unicode=")" horiz-adv-x="368" d="M112 794q54 0 96 -19t69.5 -51.5t40 -76t7.5 -91.5l-59 -560q-5 -48 -26.5 -91.5t-56 -76t-80.5 -51.5t-100 -19l9 82q33 0 61.5 12.5t50 33.5t35 49.5t16.5 60.5l59 560q3 32 -4.5 60.5t-24.5 49.5t-43 33.5t-59 12.5z" />
<glyph unicode="*" horiz-adv-x="458" d="M135 391l104 122l-140 46l24 54l139 -48l15 152h58l-18 -152l148 48l12 -54l-150 -46l78 -122l-50 -33l-75 123l-101 -123z" />
<glyph unicode="+" horiz-adv-x="575" d="M253 86l17 160h-156l8 77h156l17 162h87l-17 -162h156l-8 -77h-156l-17 -160h-87z" />
<glyph unicode="," horiz-adv-x="270" d="M64 58q0 31 23 54t58 23q32 0 52 -23t20 -74q0 -77 -46.5 -115.5t-119.5 -38.5l5 43q30 0 47 8.5t28 22.5q10 12 14 23t5 21q-3 -3 -9.5 -5.5t-16.5 -2.5q-27 0 -43.5 19t-16.5 45z" />
<glyph unicode="-" horiz-adv-x="294" d="M290 246h-234l8 78h234z" />
<glyph unicode="." horiz-adv-x="255" d="M64 59q0 32 23 54t54 22q28 0 46 -19t18 -45q0 -16 -6.5 -29.5t-17.5 -24t-25 -16.5t-29 -6q-27 0 -45 18t-18 46z" />
<glyph unicode="/" horiz-adv-x="436" d="M454 809l75 -34l-453 -846l-75 34z" />
<glyph unicode="0" horiz-adv-x="579" d="M100 474q5 48 26.5 91.5t56 76t80.5 51.5t101 19q54 0 96.5 -19t70 -51.5t40 -76t7.5 -91.5l-26 -248q-5 -48 -26.5 -91t-56.5 -76t-81.5 -52t-100.5 -19q-55 0 -97 19t-70 52t-40 76t-7 91zM488 474q3 32 -4.5 60.5t-25 49.5t-43.5 33.5t-60 12.5t-62.5 -12.5 t-50.5 -33.5t-35.5 -49.5t-16.5 -60.5l-26 -248q-3 -32 4.5 -60t24.5 -49.5t43 -34t60 -12.5t62.5 12.5t50.5 34t35.5 49.5t16.5 60z" />
<glyph unicode="1" horiz-adv-x="345" d="M93 584q47 0 76.5 6.5t47.5 20t26 35.5t11 54h87l-74 -700h-94l54 511h-142z" />
<glyph unicode="2" horiz-adv-x="527" d="M47 0q9 85 28.5 141.5t49 95.5t69 64.5t87.5 47.5q25 11 54 25.5t54 35t42 49t17 67.5q0 51 -29.5 77t-80.5 26q-60 0 -100.5 -35t-47.5 -102h-91q5 51 27 92t56 69t76.5 43t89.5 15q86 0 138.5 -47.5t52.5 -132.5q0 -56 -23 -97t-56 -70.5t-70 -49.5t-65 -33 q-48 -24 -78.5 -44t-48.5 -42t-26 -49t-12 -64h333l-9 -82h-437v0z" />
<glyph unicode="3" horiz-adv-x="559" d="M147 221q-3 -35 5.5 -62.5t26.5 -47t44.5 -30t59.5 -10.5q34 0 62 11t47.5 30.5t30.5 45t11 55.5q0 48 -30.5 80t-99.5 32h-50l9 81h50q37 0 64 10t43.5 27.5t24.5 39.5t8 46q0 51 -31 75.5t-83 24.5q-66 0 -100.5 -35t-40.5 -92h-92q5 46 24.5 84.5t51 66.5t73.5 43 t90 15q42 0 78.5 -12t63.5 -34.5t42 -55t15 -73.5q0 -33 -9.5 -61t-26.5 -49.5t-40 -37t-50 -23.5q49 -16 78.5 -53.5t29.5 -97.5q0 -50 -20.5 -91t-55.5 -71t-81.5 -46.5t-97.5 -16.5q-49 0 -91 15.5t-71.5 45.5t-44 73t-8.5 98h91z" />
<glyph unicode="4" horiz-adv-x="552" d="M352 225h-260l50 475h91l-41 -393h169l22 216h91l-22 -216h105l-9 -82h-105l-24 -225h-91z" />
<glyph unicode="5" horiz-adv-x="598" d="M154 700h412l-8 -82h-330l-25 -234q29 44 77 62t94 18q47 0 83.5 -17t62 -45.5t38.5 -67t13 -81.5q0 -54 -20 -102t-55.5 -84t-84 -57t-106.5 -21q-56 0 -98.5 19.5t-70 52.5t-39.5 76t-7 90h91q-3 -32 4.5 -60t24.5 -49.5t43 -34t60 -12.5q37 0 67.5 14t52.5 38t34 55.5 t12 65.5q0 28 -9 53.5t-26 44t-42 29.5t-58 11q-44 0 -79.5 -21t-59.5 -63h-93z" />
<glyph unicode="6" horiz-adv-x="556" d="M276 -11q-51 0 -91.5 17.5t-68.5 46.5t-42.5 68t-14.5 83q0 47 15.5 87t41.5 75l244 334h105l-186 -246q10 7 22.5 9.5t29.5 2.5q48 0 86.5 -17.5t66 -47t42.5 -69t15 -83.5q0 -52 -20 -99t-55 -83t-84 -57t-106 -21zM284 71q36 0 66 14t52.5 37.5t35 54.5t12.5 66 q0 29 -9.5 54.5t-26.5 44.5t-42.5 30t-56.5 11q-36 0 -66 -14t-51.5 -37.5t-34 -54.5t-12.5 -65q0 -28 8.5 -53.5t25.5 -45t42 -31t57 -11.5z" />
<glyph unicode="7" horiz-adv-x="467" d="M546 700l-385 -700h-97l343 618h-304l9 82h434z" />
<glyph unicode="8" horiz-adv-x="580" d="M289 -11q-52 0 -92 15t-67.5 40.5t-41.5 60t-14 73.5q0 30 8.5 59.5t25.5 55t42 45t59 28.5q-46 17 -66 54.5t-20 81.5q0 42 17 80t48.5 66.5t76 45.5t98.5 17q49 0 86.5 -14t63 -38t39 -56t13.5 -69q0 -26 -7 -51.5t-21.5 -48t-36.5 -40.5t-53 -28q26 -8 44.5 -23.5 t30.5 -36t18 -44.5t6 -48q0 -45 -18.5 -85.5t-52 -71.5t-81 -49.5t-105.5 -18.5zM332 397q32 0 58 10t44 27.5t28 40t10 48.5q0 45 -30 75.5t-87 30.5q-32 0 -57.5 -10.5t-44 -27.5t-28.5 -40.5t-10 -48.5q0 -45 30 -75t87 -30zM298 71q35 0 64 11t49.5 29.5t32 43.5 t11.5 53q0 24 -8.5 44.5t-25 36.5t-41.5 25t-58 9q-36 0 -65 -11t-49.5 -29.5t-31.5 -43.5t-11 -52q0 -49 34.5 -82.5t98.5 -33.5z" />
<glyph unicode="9" horiz-adv-x="556" d="M353 711q52 0 92 -17t68 -46.5t42.5 -68.5t14.5 -83q0 -48 -16 -87t-42 -75l-243 -334h-105l186 246q-8 -7 -16 -9t-23 -2q-51 0 -92 16.5t-70 45t-45 68t-16 85.5q0 52 19.5 99.5t55 83.5t84 57t106.5 21zM345 629q-36 0 -66.5 -14t-52 -37.5t-34 -54.5t-12.5 -65 q0 -29 9 -55t26.5 -45t42 -30t56.5 -11q36 0 66 14t52 37.5t34.5 54.5t12.5 66q0 29 -9 54.5t-26 44.5t-42 30t-57 11z" />
<glyph unicode=":" horiz-adv-x="255" d="M100 393q0 32 22.5 54t53.5 22q28 0 46 -19t18 -45q0 -16 -6.5 -29.5t-17 -24t-24.5 -16.5t-29 -6q-27 0 -45 18t-18 46zM64 58q0 32 23 54.5t54 22.5q28 0 46 -19t18 -45q0 -32 -23.5 -54.5t-54.5 -22.5q-28 0 -45.5 19t-17.5 45z" />
<glyph unicode=";" horiz-adv-x="263" d="M64 58q0 31 23 54t58 23q32 0 52 -23t20 -74q0 -77 -46.5 -115.5t-119.5 -38.5l5 43q30 0 47 8.5t28 22.5q10 12 14 23t5 21q-3 -3 -9.5 -5.5t-16.5 -2.5q-27 0 -43.5 19t-16.5 45zM100 393q0 32 23 54t53 22q28 0 46.5 -18.5t18.5 -45.5q0 -32 -24 -54t-55 -22 q-27 0 -44.5 18.5t-17.5 45.5z" />
<glyph unicode="&#x3c;" horiz-adv-x="575" d="M60 252l7 63l526 181l-9 -83l-393 -129l366 -130l-9 -82z" />
<glyph unicode="=" horiz-adv-x="575" d="M120 326l8 77h404l-8 -77h-404zM103 164l8 78h404l-8 -78h-404z" />
<glyph unicode="&#x3e;" horiz-adv-x="575" d="M42 72l9 82l392 130l-365 129l9 83l488 -181l-7 -63z" />
<glyph unicode="?" horiz-adv-x="504" d="M202 188q4 38 12 66t21 49.5t31 39.5t44 35q16 11 36 24.5t37.5 31.5t29.5 42t12 55q0 50 -31 74.5t-81 24.5q-60 0 -100 -35t-47 -102h-91q5 50 26 90.5t54 69t75.5 44t90.5 15.5q42 0 77.5 -12t62 -34.5t41 -55t14.5 -73.5t-14 -72.5t-34 -55t-42.5 -40t-38.5 -27.5 q-26 -18 -43.5 -32t-28 -30.5t-16.5 -38t-9 -53.5h-88zM160 53q0 33 23.5 56t55.5 23q29 0 48.5 -19t19.5 -47q0 -16 -7 -30.5t-18 -25.5t-26 -17.5t-31 -6.5q-29 0 -47 20t-18 47z" />
<glyph unicode="@" horiz-adv-x="854" d="M425 67q32 0 59 12.5t47 33.5t31.5 49t11.5 58q0 26 -8.5 49t-24 40t-38 27t-50.5 10q-32 0 -58.5 -12.5t-46.5 -33.5t-31 -49t-11 -59q0 -26 8 -48.5t23 -39.5t37 -27t51 -10zM560 80q-24 -38 -64 -58.5t-87 -20.5q-40 0 -72.5 15t-56 40.5t-36 59t-12.5 71.5 q0 45 17.5 86t47.5 71.5t70 49t85 18.5q50 0 84.5 -21.5t49.5 -57.5l8 70h73l-30 -283q-5 -44 8 -68.5t40 -24.5q22 0 42 17t34 47.5t22.5 72t8.5 91.5q0 79 -21.5 135t-60.5 91t-92.5 51t-117.5 16q-102 0 -174 -34.5t-118 -88.5t-67 -119.5t-21 -128.5q0 -62 20 -118 t61.5 -98.5t104 -67.5t147.5 -25q27 0 60 3t69 10.5t74 20t75 32.5l29 -57q-41 -22 -83.5 -36.5t-83.5 -23t-78.5 -12t-68.5 -3.5q-102 0 -177.5 30t-125 81t-73.5 117.5t-24 140.5q0 78 27 156.5t84 142.5t144 104t207 40q80 0 146 -20.5t113.5 -63t73.5 -108t26 -156.5 q0 -63 -13 -119t-38 -97.5t-61.5 -65.5t-83.5 -24q-53 0 -85.5 28.5t-27.5 73.5z" />
<glyph unicode="A" horiz-adv-x="559" d="M458 0l-26 107h-284l-47 -107h-96l315 700h66l168 -700h-96zM338 551l-153 -361h228z" />
<glyph unicode="B" horiz-adv-x="591" d="M152 700h239q57 0 94.5 -16.5t59.5 -42.5t30.5 -57t8.5 -60q0 -39 -12 -68.5t-31 -50.5t-43 -34t-47 -18q17 -4 36 -14t34.5 -27.5t25.5 -41.5t10 -56q0 -30 -11 -67t-38 -69.5t-72 -55t-114 -22.5h-244zM202 312l-24 -230h153q37 0 62.5 12.5t41.5 31t23 40.5t7 41 q0 17 -5.5 35.5t-18.5 34t-33.5 25.5t-50.5 10h-155zM361 395q37 0 62.5 12t41 30t22 39.5t6.5 40.5q0 17 -5.5 35t-18 32.5t-34 24t-53.5 9.5h-148l-23 -223h150z" />
<glyph unicode="C" horiz-adv-x="775" d="M759 216q-17 -46 -49.5 -88t-78 -74t-102.5 -51t-124 -19q-79 0 -140 26.5t-103 72t-64 106t-22 127.5q0 77 28 149t80.5 128t126.5 89.5t167 33.5q72 0 127.5 -20.5t94 -55.5t60 -83t24.5 -102h-96q-4 38 -19.5 71t-43 57t-66 37.5t-87.5 13.5q-69 0 -125 -26.5 t-95.5 -70t-61 -99.5t-21.5 -115q0 -53 17 -99.5t49 -81.5t78 -55.5t104 -20.5q43 0 81 11.5t68.5 31.5t54 47.5t38.5 59.5h100z" />
<glyph unicode="D" horiz-adv-x="697" d="M368 700q81 0 142 -27t102.5 -71t62.5 -101.5t21 -118.5q0 -71 -28 -139.5t-80 -122.5t-126.5 -87t-167.5 -33h-216l74 700h216zM234 618l-56 -536h125q69 0 124 25.5t94 66.5t59.5 94t20.5 107q0 47 -15.5 91t-46 77.5t-75.5 54t-105 20.5h-125z" />
<glyph unicode="E" horiz-adv-x="544" d="M234 618l-24 -229h302l-9 -82h-302l-23 -225h302l-9 -82h-393l74 700h393l-9 -82h-302z" />
<glyph unicode="F" horiz-adv-x="538" d="M234 618l-26 -250h302l-9 -82h-302l-30 -286h-91l74 700h393l-9 -82h-302z" />
<glyph unicode="G" horiz-adv-x="836" d="M508 337h337l-8 -82h-75q-16 -61 -48.5 -111t-78 -85.5t-104 -55t-127.5 -19.5q-83 0 -144.5 27t-102.5 72.5t-61.5 105t-20.5 123.5q0 78 29 151t81.5 129t125 90t160.5 34q60 0 110 -16.5t86 -45t56.5 -67t22.5 -82.5h-92q-4 27 -19 50.5t-39.5 41t-57.5 27.5t-74 10 q-66 0 -120.5 -26.5t-93.5 -70.5t-60 -100.5t-21 -116.5q0 -50 15 -96t46 -81t77.5 -56t108.5 -21q52 0 94 15t73 40.5t51.5 60t30.5 73.5h-165z" />
<glyph unicode="H" horiz-adv-x="664" d="M527 307h-326l-32 -307h-91l74 700h91l-33 -311h326l33 311h91l-74 -700h-91z" />
<glyph unicode="I" horiz-adv-x="250" d="M152 700h94l-74 -700h-94z" />
<glyph unicode="J" horiz-adv-x="536" d="M488 222q-5 -51 -25 -95t-52 -75.5t-75.5 -49.5t-95.5 -18q-53 0 -93 18t-66.5 50t-37.5 75.5t-6 94.5h91q-7 -70 25.5 -113t95.5 -43t101.5 42.5t46.5 113.5l50 478h91z" />
<glyph unicode="K" horiz-adv-x="590" d="M202 318l-33 -318h-91l74 700h91l-34 -318l328 318h115l-357 -350l283 -350h-115z" />
<glyph unicode="L" horiz-adv-x="425" d="M407 82l-9 -82h-320l74 700h91l-65 -618h229z" />
<glyph unicode="M" horiz-adv-x="812" d="M734 0h-92l51 488l-252 -488h-70l-151 488l-51 -488h-91l74 700h88l181 -560l299 560h88z" />
<glyph unicode="N" horiz-adv-x="663" d="M511 159l57 541h91l-74 -700h-101l-258 541l-57 -541h-91l74 700h101z" />
<glyph unicode="O" horiz-adv-x="803" d="M404 -16q-80 0 -141 27.5t-102.5 73t-63 105.5t-21.5 125q0 77 29 149t81.5 128t126 90t162.5 34q79 0 140.5 -27t102.5 -73t62.5 -105.5t21.5 -124.5q0 -77 -29 -149.5t-81.5 -128.5t-125.5 -90t-162 -34zM411 66q65 0 119.5 26.5t93.5 70.5t60.5 100t21.5 116 q0 50 -15.5 96t-46 81.5t-75.5 56.5t-103 21q-65 0 -119 -26.5t-93 -70t-61 -99.5t-22 -116q0 -50 15.5 -96t46 -81.5t75.5 -57t103 -21.5z" />
<glyph unicode="P" horiz-adv-x="596" d="M152 700h246q51 0 91 -17.5t68 -47t42.5 -68.5t14.5 -83q0 -52 -19.5 -99t-55 -83t-84.5 -57.5t-108 -21.5h-155l-23 -223h-91zM356 306q37 0 67.5 14t52.5 37.5t34.5 54.5t12.5 65q0 29 -9 54.5t-26.5 45t-42.5 30.5t-56 11h-155l-33 -312h155z" />
<glyph unicode="Q" horiz-adv-x="803" d="M802 384q0 -68 -22.5 -130.5t-62.5 -113.5t-95.5 -88t-121.5 -53l53 -87q-20 -9 -42.5 -19.5t-42.5 -20.5l-68 112q-78 0 -138.5 27.5t-102 73.5t-62.5 105.5t-21 124.5q0 77 29 149t81.5 128t126 90t162.5 34q79 0 140.5 -27.5t102.5 -73t62.5 -105.5t21.5 -126zM411 66 q65 0 119.5 26.5t93.5 70.5t60.5 100t21.5 116q0 50 -15.5 96t-46 81.5t-75 56.5t-102.5 21q-65 0 -119.5 -26.5t-93.5 -70t-61 -99.5t-22 -116q0 -50 15.5 -96t46 -81.5t75.5 -57t103 -21.5z" />
<glyph unicode="R" horiz-adv-x="606" d="M152 700h246q51 0 91 -17.5t68 -47t42.5 -68.5t14.5 -83q0 -42 -13 -80.5t-36.5 -70.5t-56.5 -57t-74 -38l122 -238h-104l-116 223h-144l-23 -223h-91zM356 306q37 0 67.5 14t52.5 37.5t34.5 54.5t12.5 65q0 29 -9 54.5t-26.5 45t-42.5 30.5t-56 11h-155l-33 -312h155z " />
<glyph unicode="S" horiz-adv-x="571" d="M160 223q-8 -72 31 -114.5t110 -42.5q33 0 61 9t48.5 26t32 41t11.5 53q0 28 -10 46.5t-27 31.5t-38.5 22t-45.5 17q-44 15 -82 30t-66.5 36t-44.5 51.5t-16 75.5q0 49 19 88.5t51.5 66.5t75.5 41.5t90 14.5q49 0 88.5 -15.5t66 -43.5t39 -67.5t7.5 -87.5h-91 q5 63 -25.5 97.5t-91.5 34.5q-59 0 -98 -31t-39 -84q0 -26 9.5 -43.5t26 -30t38 -21t44.5 -16.5q41 -14 79 -29t67.5 -37t47.5 -54t18 -80q0 -51 -21 -92.5t-56 -71t-81.5 -45t-98.5 -15.5q-53 0 -96 16.5t-72.5 47t-43.5 75t-8 100.5h91z" />
<glyph unicode="T" horiz-adv-x="478" d="M258 618h-181l9 82h454l-9 -82h-182l-65 -618h-91z" />
<glyph unicode="U" horiz-adv-x="629" d="M145 700h91l-50 -473q-3 -32 4.5 -61.5t25 -51.5t44 -35t61.5 -13q34 0 64 13t52.5 34.5t36.5 51t17 62.5l50 473h91l-50 -473q-5 -50 -27 -94t-57.5 -77t-83 -52.5t-102.5 -19.5q-56 0 -98.5 19.5t-70.5 52.5t-40.5 77t-7.5 94z" />
<glyph unicode="V" horiz-adv-x="563" d="M315 0h-66l-171 700h96l124 -550l239 550h96z" />
<glyph unicode="W" horiz-adv-x="964" d="M539 542l-226 -542h-68l-165 700h96l119 -542l227 542h69l113 -542l233 542h96l-314 -700h-67z" />
<glyph unicode="X" horiz-adv-x="548" d="M509 700h104l-250 -350l176 -350h-104l-133 271l-189 -271h-103l249 350l-175 350h103l132 -271z" />
<glyph unicode="Y" horiz-adv-x="583" d="M234 0h-100l170 278l-220 422h106l171 -327l199 327h100z" />
<glyph unicode="Z" d="M109 700h521l-454 -618h392l-9 -82h-545l454 618h-368z" />
<glyph unicode="[" horiz-adv-x="335" d="M53 -234l108 1029h197l-8 -78h-110l-92 -874h110l-8 -77h-197z" />
<glyph unicode="\" horiz-adv-x="436" d="M434 -37l-83 -34l-275 846l83 34z" />
<glyph unicode="]" horiz-adv-x="335" d="M35 -234l8 77h110l92 873h-110l8 78h197l-108 -1028h-197z" />
<glyph unicode="^" horiz-adv-x="638" d="M514 323l-129 318l-196 -318h-95l271 427h62l185 -427h-98z" />
<glyph unicode="_" horiz-adv-x="560" d="M18 -111l6 61h500l-6 -61h-500z" />
<glyph unicode="`" horiz-adv-x="495" d="M159 664l49 68l235 -137l-49 -68z" />
<glyph unicode="a" horiz-adv-x="597" d="M566 454l-47 -454h-86l8 79q-27 -42 -72.5 -66t-100.5 -24q-47 0 -84.5 17.5t-64.5 47t-41.5 68.5t-14.5 83q0 52 20 99.5t55 83.5t81 57t99 21q56 0 96 -24t58 -66l8 78h86zM288 67q37 0 68 14.5t53.5 38.5t35 56t12.5 67q0 30 -9 56t-27 46t-43.5 31.5t-58.5 11.5 q-37 0 -68 -14.5t-53.5 -39t-35.5 -56.5t-13 -67q0 -30 9.5 -56t27 -45.5t43.5 -31t59 -11.5z" />
<glyph unicode="b" horiz-adv-x="599" d="M165 0h-87l74 700h87l-34 -324q25 39 69 64.5t102 25.5q46 0 84 -17.5t65 -47t42 -68.5t15 -83q0 -52 -20 -99t-54.5 -83t-81 -57.5t-99.5 -21.5q-59 0 -98 25.5t-56 64.5zM326 67q37 0 68 14.5t53.5 39t35 56t12.5 66.5q0 29 -9 55.5t-26.5 46.5t-43 31.5t-58.5 11.5 q-36 0 -67.5 -14.5t-54 -38.5t-35.5 -56t-13 -68q0 -30 9.5 -56t27 -45.5t43 -31t58.5 -11.5z" />
<glyph unicode="c" horiz-adv-x="529" d="M427 289q0 42 -26.5 70.5t-84.5 28.5q-42 0 -72.5 -15.5t-51 -40.5t-30.5 -57.5t-10 -66.5q0 -29 7.5 -55t24 -45t41.5 -30t61 -11q54 0 83.5 24t44.5 65h87q-8 -35 -27 -65t-47.5 -53t-67 -36t-84.5 -13q-54 0 -93.5 17.5t-65.5 46.5t-38.5 68t-12.5 81q0 49 16.5 96.5 t49.5 85t81 60t111 22.5q51 0 87.5 -15t60 -40t34 -56.5t9.5 -65.5h-87z" />
<glyph unicode="d" horiz-adv-x="597" d="M441 79q-27 -42 -72.5 -66t-100.5 -24q-47 0 -84.5 17.5t-64.5 47t-41.5 68.5t-14.5 83q0 52 20 99.5t55 83.5t81 57t99 21q56 0 96 -24t58 -66l34 324h86l-73 -700h-86zM288 67q37 0 68 14.5t53.5 38.5t35 56t12.5 67q0 30 -9 56t-27 46t-43.5 31.5t-58.5 11.5 q-37 0 -68 -14.5t-53.5 -39t-35.5 -56.5t-13 -67q0 -30 9.5 -56t27 -45.5t43.5 -31t59 -11.5z" />
<glyph unicode="e" horiz-adv-x="525" d="M153 204q-3 -29 2 -54.5t19.5 -45t39.5 -31t61 -11.5q52 0 81 21.5t43 50.5h88q-9 -29 -28 -55t-47 -46t-64.5 -32t-79.5 -12q-52 0 -90.5 17.5t-63.5 46.5t-37 68t-12 83q0 54 18 102t50 83.5t77.5 56t99.5 20.5q44 0 80 -14t61.5 -39t39.5 -60t14 -77q0 -20 -3 -36.5 t-8 -35.5h-341zM305 392q-54 0 -95 -31t-49 -91h260q6 56 -26.5 89t-89.5 33z" />
<glyph unicode="f" horiz-adv-x="347" d="M401 620q-11 4 -22.5 6t-31.5 2q-12 0 -25.5 -2t-25.5 -10.5t-21 -26t-12 -47.5l-9 -88h130l-8 -73h-130l-40 -381h-87l40 381h-98l8 73h98l8 79q6 61 26.5 96t45.5 52t51 21t44 4q27 0 42.5 -3.5t24.5 -8.5z" />
<glyph unicode="g" horiz-adv-x="595" d="M320 388q-37 0 -68 -14.5t-53.5 -39t-35.5 -56.5t-13 -67q0 -29 9 -55.5t27 -46t43.5 -31t58.5 -11.5q37 0 68 14.5t53.5 38.5t35.5 56t13 67q0 30 -9 56t-27 46t-43.5 31.5t-58.5 11.5zM516 -29q-6 -61 -28 -104t-55.5 -70.5t-78 -40t-96.5 -12.5q-65 0 -107.5 17.5 t-67.5 45.5t-34 63.5t-8 71.5h88q0 -24 6 -46t22 -38.5t41.5 -26.5t64.5 -10q34 0 62.5 8.5t50.5 26.5t36 46.5t18 68.5l11 108q-25 -39 -69.5 -64.5t-102.5 -25.5q-47 0 -84.5 17.5t-64.5 47t-41.5 68.5t-14.5 83q0 52 20 99.5t54.5 83.5t80.5 57t99 21q59 0 98.5 -25.5 t56.5 -64.5l8 78h86z" />
<glyph unicode="h" d="M152 700h87l-35 -326q25 42 68 67t103 25q44 0 76.5 -15t52.5 -45q18 -28 21.5 -60.5t-1.5 -77.5l-28 -268h-87l25 241q3 31 0 58.5t-14.5 47t-32 31t-51.5 11.5q-33 0 -59 -13t-44.5 -34.5t-29 -49.5t-13.5 -58l-25 -234h-87z" />
<glyph unicode="i" horiz-adv-x="276" d="M143 454h86l-48 -454h-86zM133 620q0 32 23.5 54.5t54.5 22.5q28 0 45.5 -19t17.5 -46q0 -31 -22.5 -53t-53.5 -22q-29 0 -47 18.5t-18 44.5z" />
<glyph unicode="j" horiz-adv-x="274" d="M168 -122q-8 -74 -40.5 -103.5t-78.5 -29.5q-17 0 -38 3.5t-32 8.5l8 73q14 -5 23.5 -6.5t17.5 -1.5q23 0 36.5 14.5t17.5 46.5l60 571h87zM133 620q0 16 6.5 30t17 24.5t24.5 16.5t29 6q28 0 46 -19t18 -46q0 -31 -23 -53t-54 -22q-29 0 -46.5 18.5t-17.5 44.5z" />
<glyph unicode="k" horiz-adv-x="477" d="M282 227l183 -227h-110l-168 206l-22 -206h-87l74 700h87l-48 -453l212 207h110z" />
<glyph unicode="l" horiz-adv-x="243" d="M152 700h87l-74 -700h-87z" />
<glyph unicode="m" horiz-adv-x="824" d="M666 0l27 261q7 63 -14 95.5t-68 32.5q-51 0 -85.5 -39t-42.5 -119l-24 -231h-87l27 256q8 69 -13.5 101t-66.5 32q-51 0 -86.5 -38.5t-43.5 -119.5l-24 -231h-87l48 454h87l-9 -81q19 39 55.5 66t93.5 27q55 0 89 -26t42 -71q19 39 59.5 68t103.5 29q40 0 67.5 -13 t44 -36.5t22.5 -56.5t2 -73l-30 -287h-87z" />
<glyph unicode="n" d="M126 454h87l-9 -80q25 42 68 67t103 25q44 0 76.5 -15t52.5 -45q18 -28 21.5 -60.5t-1.5 -77.5l-28 -268h-87l25 241q3 31 0 58.5t-14.5 47t-32 31t-51.5 11.5q-33 0 -59 -13t-44.5 -34.5t-29 -49.5t-13.5 -58l-25 -234h-87z" />
<glyph unicode="o" horiz-adv-x="560" d="M280 -11q-52 0 -92.5 17t-68 46.5t-42 68.5t-14.5 83q0 52 19.5 99.5t55 83.5t83.5 57.5t105 21.5q51 0 91.5 -17.5t68.5 -47t43 -69t15 -83.5q0 -52 -19.5 -99t-55 -83t-84 -57t-105.5 -21zM288 67q37 0 68 14.5t53.5 38.5t35 56t12.5 67q0 30 -9 56t-27 46t-43.5 31.5 t-58.5 11.5q-37 0 -68 -14.5t-53.5 -39t-35.5 -56.5t-13 -67q0 -30 9.5 -56t27 -45.5t43.5 -31t59 -11.5z" />
<glyph unicode="p" horiz-adv-x="599" d="M204 376q27 42 72 66t100 24q46 0 84 -17.5t65 -47t42 -68.5t15 -83q0 -52 -20 -99t-54.5 -83t-81 -57.5t-99.5 -21.5q-59 0 -98 25.5t-56 64.5l-34 -325h-87l74 700h87zM358 388q-36 0 -67.5 -14.5t-54 -38.5t-35.5 -56t-13 -68q0 -30 9.5 -56t27 -45.5t43 -31 t58.5 -11.5q37 0 68 14.5t53.5 39t35 56t12.5 66.5q0 29 -9 55.5t-26.5 46.5t-43 31.5t-58.5 11.5z" />
<glyph unicode="q" horiz-adv-x="599" d="M481 454h87l-73 -700h-87l34 325q-27 -42 -72 -66t-101 -24q-47 0 -84.5 17.5t-64.5 47t-41.5 68.5t-14.5 83q0 52 20 99t54.5 83t81.5 57.5t100 21.5q59 0 97.5 -25.5t55.5 -64.5zM320 388q-37 0 -68 -14.5t-53.5 -39t-35 -56.5t-12.5 -67q0 -29 9 -55.5t27 -46 t43.5 -31t58.5 -11.5q36 0 67 14t53.5 38t35.5 56t13 68q0 30 -9.5 56.5t-27 46t-43 31t-58.5 11.5z" />
<glyph unicode="r" horiz-adv-x="365" d="M398 374q-13 3 -21.5 4t-17.5 1q-79 0 -122 -49t-51 -131l-21 -199h-87l48 454h87l-10 -89q23 43 67.5 69.5t94.5 26.5q25 0 42 -7z" />
<glyph unicode="s" horiz-adv-x="452" d="M298 256q21 -7 43 -15.5t39.5 -22t28.5 -34t11 -50.5q0 -35 -15 -62t-41 -45.5t-60.5 -28t-72.5 -9.5q-40 0 -73.5 10t-57.5 30.5t-36 51.5t-7 72h85q-6 -52 22.5 -73.5t75.5 -21.5q44 0 70.5 17t26.5 51q0 17 -8 27.5t-24.5 18.5t-42.5 16t-61 20q-22 8 -42 17t-35 21.5 t-24 31.5t-9 46q0 35 14.5 61.5t39.5 44.5t57 27t67 9q40 0 72 -11t54 -31.5t32.5 -48.5t6.5 -62h-84q5 40 -16.5 61.5t-66.5 21.5q-38 0 -65 -16.5t-27 -48.5q0 -15 6.5 -24.5t21.5 -17t38.5 -15t56.5 -18.5z" />
<glyph unicode="t" horiz-adv-x="340" d="M325 0q-13 -2 -35 -4t-45 -2q-21 0 -45 4t-44 19.5t-31 47.5t-5 88l24 228h-84l8 73h84l16 153h87l-16 -153h118l-8 -73h-118l-22 -209q-3 -33 0.5 -52.5t12.5 -30t22 -13.5t30 -3q14 0 31.5 1t27.5 3z" />
<glyph unicode="u" d="M535 454l-48 -454h-87l9 81q-25 -42 -68.5 -67t-103.5 -25q-43 0 -76 14.5t-53 44.5q-17 25 -20.5 57.5t1.5 80.5l28 268h87l-25 -240q-3 -32 0 -59t14 -46.5t31.5 -31t51.5 -11.5q33 0 59 12.5t44.5 34t29.5 49.5t14 59l24 233h88z" />
<glyph unicode="v" horiz-adv-x="482" d="M146 454l107 -330l179 330h94l-256 -454h-60l-158 454h94z" />
<glyph unicode="w" horiz-adv-x="734" d="M405 359l-165 -359h-60l-128 454h93l79 -320l148 320h86l79 -320l148 320h93l-224 -454h-60z" />
<glyph unicode="x" horiz-adv-x="440" d="M424 0h-100l-87 161l-121 -161h-100l178 229l-128 225h100l85 -158l119 158h100l-176 -225z" />
<glyph unicode="y" horiz-adv-x="573" d="M257 -256q-56 0 -94.5 15t-61.5 41.5t-31.5 62.5t-5.5 78h85q-5 -53 20.5 -86.5t94.5 -33.5q64 0 100 33.5t44 113.5l12 113q-26 -42 -68.5 -67t-103.5 -25q-47 0 -79 15t-50 43q-17 26 -20.5 59t1.5 83l28 265h87l-25 -238q-3 -32 -0.5 -59.5t13 -47.5t31 -31.5 t53.5 -11.5q34 0 60.5 12.5t44.5 34t28.5 49.5t13.5 59l24 233h88l-51 -486q-6 -60 -26 -102.5t-51 -69.5t-72 -39.5t-89 -12.5z" />
<glyph unicode="z" horiz-adv-x="434" d="M462 454l-283 -376h244l-8 -78h-391l283 377h-235l8 77h382z" />
<glyph unicode="{" horiz-adv-x="420" d="M446 794l-7 -66h-46q-38 0 -56.5 -26t-22.5 -60l-27 -261q-3 -30 -15.5 -50t-28.5 -33t-33 -20t-29 -9q12 -3 27.5 -9.5t28.5 -20t21 -35.5t4 -56l-24 -230q-2 -17 0.5 -32.5t9.5 -27.5t19.5 -19t31.5 -7h46l-7 -66h-66q-24 0 -47.5 8.5t-41.5 25.5t-27.5 43.5t-5.5 61.5 l24 232q3 26 -5 44t-21 29.5t-28.5 16.5t-27.5 5l8 72q12 0 28.5 5t31.5 15.5t26.5 27t14.5 40.5l27 263q4 35 19 61t36.5 43.5t47 26t49.5 8.5h66z" />
<glyph unicode="|" horiz-adv-x="243" d="M53 -234l108 1028h87l-108 -1028h-87z" />
<glyph unicode="}" horiz-adv-x="420" d="M207 794q24 0 47.5 -8.5t41.5 -26t27.5 -43.5t5.5 -61l-27 -263q-3 -24 5.5 -40.5t21.5 -27t28.5 -15.5t27.5 -5l-8 -72q-12 0 -28.5 -5t-32 -16.5t-27 -29.5t-14.5 -44l-24 -232q-4 -35 -19 -61.5t-36.5 -43.5t-47 -25.5t-49.5 -8.5h-66l7 66h45q38 0 56.5 26.5 t22.5 59.5l24 230q3 33 15.5 55t28.5 36t33 20.5t30 9.5q-12 2 -27.5 9t-28.5 20t-21 33t-5 50l27 261q4 34 -10 60t-51 26h-45l7 66h66z" />
<glyph unicode="~" horiz-adv-x="518" d="M67 291q27 30 57.5 42t56.5 12t55 -9.5t58 -22.5q32 -14 58 -25t50 -11q31 0 60.5 17.5t51.5 37.5l-8 -76q-27 -30 -58 -43.5t-60 -13.5q-26 0 -50 9.5t-55 25.5q-25 13 -53.5 23t-56.5 10q-35 0 -62.5 -15.5t-51.5 -37.5z" />
<glyph unicode="&#xa1;" horiz-adv-x="296" d="M153 485h95l-51 -488h-95zM146 634q0 16 6.5 30t17.5 24.5t25 16.5t29 6q28 0 46 -19t18 -45q0 -32 -24 -54.5t-55 -22.5q-27 0 -45 18.5t-18 45.5z" />
<glyph unicode="&#xa2;" horiz-adv-x="564" d="M449 376q1 41 -26 70t-85 29q-42 0 -72.5 -15.5t-50.5 -41t-30 -58t-10 -66.5q0 -29 7.5 -54.5t23.5 -44.5t41 -30t61 -11q54 0 84.5 24t44.5 65h87q-17 -63 -64 -108.5t-127 -55.5l-11 -108h-82l11 109q-41 6 -71.5 25t-51 47.5t-30.5 63.5t-10 73q0 45 14.5 88.5 t41.5 79t66.5 60t89.5 32.5l12 109h82l-12 -108q43 -6 73 -23t48.5 -40.5t26 -52t6.5 -58.5h-87z" />
<glyph unicode="&#xa3;" horiz-adv-x="588" d="M242 418h167l-9 -82h-166l-5 -47q-8 -78 -21.5 -132.5t-32.5 -74.5h324l-9 -82h-428l7 69q28 24 44 83.5t24 136.5l5 47h-68l9 82h68l10 94q4 44 25.5 80.5t54 63t74 41t86.5 14.5q48 0 87 -16.5t65 -45.5t38 -69t7 -88h-91q3 29 -2.5 54t-20 43t-37.5 28.5t-56 10.5 q-58 0 -94.5 -29.5t-41.5 -73.5z" />
<glyph unicode="&#xa4;" horiz-adv-x="748" d="M519 175q-31 -20 -67.5 -31.5t-78.5 -11.5t-76 11.5t-60 31.5l-75 -67l-49 55l75 68q-15 24 -22.5 54.5t-7.5 62.5q0 45 15 85.5t44 75.5l-60 68l60 55l60 -68q31 21 67.5 33t78.5 12t76.5 -12t60.5 -32l74 67l50 -55l-75 -67q15 -25 23 -56t8 -63q0 -45 -15.5 -85.5 t-44.5 -75.5l59 -67l-60 -55zM383 210q36 0 67.5 14t54 38t35.5 56t13 68q0 30 -9.5 56.5t-27 46t-43 31t-58.5 11.5q-37 0 -68 -14.5t-53.5 -39t-35 -56.5t-12.5 -67q0 -29 9 -55.5t26.5 -46t43 -31t58.5 -11.5z" />
<glyph unicode="&#xa5;" horiz-adv-x="593" d="M158 700l179 -330l246 330h105l-302 -406h146l-7 -73h-162l-8 -71h162l-7 -73h-162l-9 -77h-83l9 77h-159l7 73h159l8 71h-159l7 73h143l-219 406h106z" />
<glyph unicode="&#xa6;" horiz-adv-x="243" d="M112 328l49 466h87l-49 -466h-87zM189 231l-49 -465h-87l49 465h87z" />
<glyph unicode="&#xa7;" horiz-adv-x="580" d="M285 80q-45 15 -84 29.5t-67.5 34.5t-45 47t-16.5 67q0 59 35.5 103t95.5 60q-32 21 -47 53.5t-15 70.5q0 45 19.5 80.5t52.5 61t75.5 39t89.5 13.5q49 0 89 -15t67 -42t40 -64t8 -82h-92q6 55 -25.5 90.5t-94.5 35.5q-27 0 -51.5 -7t-43 -20.5t-30 -33.5t-11.5 -46 q0 -25 10 -42t26.5 -29t38.5 -20.5t45 -15.5q42 -14 81 -28.5t68 -34t46.5 -46.5t17.5 -66q0 -32 -11.5 -60t-30 -50.5t-41.5 -37t-47 -19.5q67 -42 67 -124q0 -45 -19.5 -81t-52 -60.5t-75.5 -37.5t-90 -13q-51 0 -92.5 15t-69.5 42.5t-41.5 65.5t-8.5 84h92 q-6 -57 27.5 -94t101.5 -37q26 0 50.5 6.5t43 19.5t30 33t11.5 47q0 24 -9 40t-25.5 28t-39.5 21.5t-52 18.5zM474 258q0 30 -18 47t-54 31l-119 44q-26 -1 -47.5 -10t-37 -24t-24 -34.5t-8.5 -40.5q0 -28 16.5 -49t58.5 -35l117 -41q21 1 42 9.5t37.5 23.5t26.5 35t10 44z " />
<glyph unicode="&#xa8;" horiz-adv-x="556" d="M387 636q0 31 22 52.5t52 21.5q26 0 43.5 -18t17.5 -44q0 -30 -22.5 -51t-52.5 -21q-26 0 -43 17t-17 43zM157 636q0 15 6 28.5t16.5 23.5t24 16t28.5 6q26 0 43 -18t17 -44q0 -30 -22.5 -51t-51.5 -21q-26 0 -43.5 17t-17.5 43z" />
<glyph unicode="&#xa9;" horiz-adv-x="806" d="M405 -17q-80 0 -141 27.5t-102.5 73t-63 105.5t-21.5 125q0 77 29 149.5t82 129t126 90.5t162 34q79 0 140.5 -27.5t102.5 -73t62.5 -105.5t21.5 -125q0 -77 -29 -150t-81.5 -129t-126 -90t-161.5 -34zM639 267q-10 -28 -30 -54t-47.5 -45.5t-62.5 -31t-76 -11.5 q-48 0 -86 16.5t-63.5 44.5t-39 65t-13.5 78q0 47 17 91t49 78.5t78 55.5t103 21q45 0 79.5 -13t57.5 -35.5t35.5 -51.5t14.5 -61h-67q-7 43 -39 72.5t-89 29.5q-40 0 -71.5 -15t-54 -40.5t-34.5 -58.5t-12 -68q0 -31 9.5 -58t27.5 -47.5t44 -32.5t60 -12q49 0 86.5 24 t54.5 59h69zM411 50q69 0 126 28t98.5 74t64 106t22.5 123q0 52 -16.5 101t-48 86t-79 59.5t-108.5 22.5q-69 0 -126.5 -28t-98.5 -74t-64 -105.5t-23 -122.5q0 -53 16.5 -101.5t48.5 -86t79 -60t109 -22.5z" />
<glyph unicode="&#xaa;" horiz-adv-x="597" d="M566 454l-47 -454h-86l8 79q-27 -42 -72.5 -66t-100.5 -24q-47 0 -84.5 17.5t-64.5 47t-41.5 68.5t-14.5 83q0 52 20 99.5t55 83.5t81 57t99 21q56 0 96 -24t58 -66l8 78h86zM288 67q37 0 68 14.5t53.5 38.5t35 56t12.5 67q0 30 -9 56t-27 46t-43.5 31.5t-58.5 11.5 q-37 0 -68 -14.5t-53.5 -39t-35.5 -56.5t-13 -67q0 -30 9.5 -56t27 -45.5t43.5 -31t59 -11.5z" />
<glyph unicode="&#xab;" horiz-adv-x="472" d="M442 98l-178 167l6 53l213 167l-9 -86l-137 -108l114 -108zM246 98l-178 167l6 53l213 167l-9 -86l-137 -108l114 -108z" />
<glyph unicode="&#xac;" horiz-adv-x="575" d="M435 304h-317l8 78h404l-24 -227h-87z" />
<glyph unicode="&#xad;" horiz-adv-x="294" d="M290 246h-234l8 78h234z" />
<glyph unicode="&#xae;" horiz-adv-x="808" d="M406 -17q-80 0 -141.5 27.5t-103 73t-63 105.5t-21.5 125q0 77 29 149.5t82 129t126.5 90.5t162.5 34q80 0 141 -27.5t102.5 -73t63 -105.5t21.5 -125q0 -77 -29 -150t-81.5 -129t-126 -90t-162.5 -34zM412 50q69 0 126.5 28t99 74t64 105.5t22.5 122.5q0 53 -16.5 101.5 t-48.5 86t-79.5 60t-109.5 22.5q-69 0 -126.5 -28t-99 -74t-64 -105.5t-22.5 -122.5q0 -53 16.5 -101.5t48.5 -86t79.5 -60t109.5 -22.5zM291 162l43 407h158q29 0 52.5 -10t39.5 -27t24.5 -40t8.5 -49q0 -49 -28.5 -87.5t-76.5 -54.5l72 -139h-71l-67 130h-78l-14 -130h-63 zM463 347q39 0 63 27.5t24 63.5q0 31 -18 53.5t-52 22.5h-89l-17 -167h89z" />
<glyph unicode="&#xaf;" horiz-adv-x="542" d="M526 723h-358l8 78h358z" />
<glyph unicode="&#xb0;" horiz-adv-x="329" d="M368 587q0 -32 -13 -60.5t-34.5 -49.5t-50.5 -33.5t-60 -12.5q-29 0 -52.5 10t-41 27.5t-27 41.5t-9.5 51q0 32 13 60.5t34.5 49.5t50 33.5t60.5 12.5q28 0 52 -10t41.5 -27.5t27 -41.5t9.5 -51zM305 581q0 31 -20 53t-52 22q-18 0 -34 -7.5t-28.5 -19.5t-20 -28 t-7.5 -34q0 -31 20.5 -52.5t52.5 -21.5q18 0 34 7t28 19t19.5 28t7.5 34z" />
<glyph unicode="&#xb1;" horiz-adv-x="575" d="M267 219l17 160h-156l9 78h156l16 161h87l-16 -161h156l-9 -78h-156l-17 -160h-87zM91 24l8 78h399l-8 -78h-399z" />
<glyph unicode="&#xb2;" horiz-adv-x="370" d="M88 315q5 46 15.5 78t26.5 54t37.5 36.5t48.5 27.5q19 9 36 18t29.5 19.5t20 23.5t7.5 31q0 25 -14 37t-37 12q-27 0 -46.5 -16.5t-23.5 -50.5h-71q6 53 44.5 87.5t101.5 34.5q51 0 83.5 -25t32.5 -75q0 -29 -11.5 -51t-28.5 -38t-37 -27.5t-38 -20.5q-24 -12 -40 -22 t-26 -20.5t-15 -23t-7 -30.5h179l-6 -59h-261v0z" />
<glyph unicode="&#xb3;" horiz-adv-x="382" d="M165 438q-4 -34 14 -53t49 -19q33 0 51.5 20t18.5 48q0 24 -15 39t-47 15h-33l6 56h33q38 0 53 18.5t15 42.5q0 25 -14 36t-38 11q-32 0 -48 -17t-19 -46h-71q5 49 40.5 83.5t100.5 34.5q51 0 86 -24t35 -72q0 -35 -20 -61.5t-52 -34.5q27 -8 43 -30t16 -55 q0 -28 -12 -50.5t-32 -38.5t-47 -24.5t-58 -8.5q-66 0 -99 36t-27 94h71z" />
<glyph unicode="&#xb4;" horiz-adv-x="495" d="M158 527l-35 68l263 137l35 -68z" />
<glyph unicode="&#xb5;" horiz-adv-x="575" d="M126 454h86l-25 -240q-3 -32 0 -59t15 -47t32.5 -31t51.5 -11q33 0 59 12.5t44 34t29 49.5t14 59l24 233h88l-48 -454h-87l8 81q-26 -43 -69.5 -67.5t-98.5 -24.5q-54 0 -82 28l-28 -263h-87z" />
<glyph unicode="&#xb6;" horiz-adv-x="653" d="M265 329q-43 0 -79 10t-62.5 31t-41 54.5t-14.5 80.5q0 69 29.5 111t72 64.5t89 29.5t80.5 7h319l-8 -72h-53l-83 -793h-83l83 792h-134l-83 -792h-82z" />
<glyph unicode="&#xb7;" horiz-adv-x="255" d="M90 306q0 32 23 54.5t54 22.5q28 0 46 -19t18 -46q0 -31 -23.5 -53t-54.5 -22q-27 0 -45 18.5t-18 44.5z" />
<glyph unicode="&#xb8;" horiz-adv-x="478" d="M159 0h58l-7 -71q8 10 19.5 15t25.5 5q29 0 52 -21.5t23 -56.5q0 -20 -8 -39t-22.5 -33.5t-34 -23.5t-42.5 -9q-11 0 -26.5 3t-30 12.5t-25 26.5t-11.5 45h53q1 -18 11.5 -29t29.5 -11q23 0 37.5 15t14.5 38q0 20 -11.5 30.5t-29.5 10.5q-11 0 -22 -5t-20 -20h-46z" />
<glyph unicode="&#xb9;" horiz-adv-x="268" d="M113 634q54 0 72.5 15.5t21.5 50.5h64l-40 -385h-73l28 267h-78z" />
<glyph unicode="&#xba;" horiz-adv-x="560" d="M280 -11q-52 0 -92.5 17t-68 46.5t-42 68.5t-14.5 83q0 52 19.5 99.5t55 83.5t83.5 57.5t105 21.5q51 0 91.5 -17.5t68.5 -47t43 -69t15 -83.5q0 -52 -19.5 -99t-55 -83t-84 -57t-105.5 -21zM288 67q37 0 68 14.5t53.5 38.5t35 56t12.5 67q0 30 -9 56t-27 46t-43.5 31.5 t-58.5 11.5q-37 0 -68 -14.5t-53.5 -39t-35.5 -56.5t-13 -67q0 -30 9.5 -56t27 -45.5t43.5 -31t59 -11.5z" />
<glyph unicode="&#xbb;" horiz-adv-x="472" d="M59 183l137 108l-114 108l9 86l178 -167l-5 -53l-214 -167zM255 183l137 108l-114 108l9 86l178 -167l-5 -53l-214 -167z" />
<glyph unicode="&#xbc;" horiz-adv-x="920" d="M665 747l66 -40l-517 -753l-65 40zM143 634q54 0 72.5 15.5t21.5 50.5h64l-40 -385h-73l28 267h-78zM731 116h-152l28 269h71l-22 -209h81l12 112h72l-12 -112h52l-6 -60h-52l-12 -116h-72z" />
<glyph unicode="&#xbd;" horiz-adv-x="920" d="M673 747l66 -40l-517 -753l-65 40zM151 634q54 0 72.5 15.5t21.5 50.5h64l-40 -385h-73l28 267h-78zM574 0q5 46 15.5 78t26.5 54t37 36.5t48 27.5q19 9 36 18t30 19.5t20.5 23.5t7.5 31q0 24 -14 36.5t-38 12.5q-27 0 -46 -16.5t-23 -50.5h-71q6 53 44.5 87.5 t101.5 34.5q50 0 83 -25t33 -75q0 -29 -11.5 -51t-28.5 -38t-37 -27.5t-38 -20.5q-23 -12 -38.5 -21t-26 -19.5t-16 -23.5t-7.5 -32h179l-6 -59h-261z" />
<glyph unicode="&#xbe;" horiz-adv-x="920" d="M684 747l65 -40l-517 -753l-65 40zM176 438q-4 -34 14 -53t49 -19q33 0 51.5 20t18.5 48q0 24 -15 39t-47 15h-33l6 56h33q38 0 53 18.5t15 42.5q0 25 -14 36t-38 11q-32 0 -48 -17t-19 -46h-71q5 49 40.5 83.5t100.5 34.5q51 0 86 -24t35 -72q0 -35 -20 -61.5t-52 -34.5 q27 -8 43 -30t16 -55q0 -28 -12 -50.5t-32 -38.5t-47 -24.5t-58 -8.5q-66 0 -99 36t-27 94h71zM749 116h-152l29 269h71l-22 -209h81l11 112h72l-11 -112h52l-7 -60h-52l-12 -116h-72z" />
<glyph unicode="&#xbf;" horiz-adv-x="504" d="M376 513q-4 -36 -11.5 -64t-20.5 -50t-31.5 -40.5t-44.5 -35.5q-20 -13 -40.5 -28t-37 -33t-27 -40.5t-10.5 -50.5q0 -51 31.5 -75.5t80.5 -24.5q60 0 100 35.5t47 101.5h91q-5 -50 -26 -90.5t-54 -69t-75.5 -44t-90.5 -15.5q-42 0 -77.5 12t-62 34.5t-41 55t-14.5 73.5 t14 72.5t34 55t42 40t39 27.5q27 18 44 32.5t27.5 31t16.5 37.5t9 53h88zM418 649q0 -16 -6.5 -30.5t-17 -25.5t-25 -17.5t-30.5 -6.5q-29 0 -48.5 19.5t-19.5 47.5q0 16 7 30.5t18 25t26 17t31 6.5q29 0 47 -19.5t18 -46.5z" />
<glyph unicode="&#xc0;" horiz-adv-x="559" d="M554 0h-96l-26 107h-284l-47 -107h-96l315 700h66zM185 190h228l-75 361zM244 886l49 69l235 -137l-49 -69z" />
<glyph unicode="&#xc1;" horiz-adv-x="559" d="M554 0h-96l-26 107h-284l-47 -107h-96l315 700h66zM185 190h228l-75 361zM253 735l-34 68l264 137l34 -68z" />
<glyph unicode="&#xc2;" horiz-adv-x="559" d="M554 0h-96l-26 107h-284l-47 -107h-96l315 700h66zM185 190h228l-75 361zM380 957l165 -145l-60 -61l-115 102l-136 -101l-49 60z" />
<glyph unicode="&#xc3;" horiz-adv-x="559" d="M554 0h-96l-26 107h-284l-47 -107h-96l315 700h66zM185 190h228l-75 361zM194 853q23 14 40 21.5t29 11.5t21 4.5t17 0.5q11 0 30 -4t39.5 -9.5t40.5 -9.5t34 -4q5 0 11 1t14 4t20.5 8t31.5 14l28 -56q-20 -15 -38 -23t-32 -12t-23.5 -5t-13.5 -1q-15 0 -33.5 4t-38 9 t-38 9t-32.5 4q-16 0 -33.5 -6t-41.5 -18z" />
<glyph unicode="&#xc4;" horiz-adv-x="559" d="M554 0h-96l-26 107h-284l-47 -107h-96l315 700h66zM185 190h228l-75 361zM413 837q0 16 6.5 30t17 24.5t24.5 16.5t29 6q28 0 46 -19t18 -46q0 -31 -23 -53t-54 -22q-29 0 -46.5 18.5t-17.5 44.5zM184 837q0 32 23 54.5t54 22.5q28 0 46 -19t18 -45q0 -32 -23.5 -54 t-54.5 -22q-28 0 -45.5 18.5t-17.5 44.5z" />
<glyph unicode="&#xc5;" horiz-adv-x="559" d="M554 0h-96l-26 107h-284l-47 -107h-96l315 700h66zM185 190h228l-75 361zM382 976q24 0 44.5 -9t35.5 -24t23 -35.5t8 -43.5q0 -27 -11 -51.5t-30 -42.5t-43 -29t-51 -11q-24 0 -44.5 9t-35.5 24.5t-23.5 36t-8.5 43.5q0 27 11.5 51t30 42.5t43 29t51.5 10.5zM376 913 q-13 0 -25 -5.5t-21 -14.5t-14.5 -20.5t-5.5 -24.5q0 -22 15.5 -37.5t38.5 -15.5q26 0 45 19.5t19 45.5q0 22 -14.5 37.5t-37.5 15.5z" />
<glyph unicode="&#xc6;" horiz-adv-x="865" d="M552 618l-24 -229h301l-9 -82h-301l-23 -225h301l-9 -82h-393l11 108h-241l-63 -108h-100l419 700h441l-9 -82h-301zM415 190l44 418l-246 -418h202z" />
<glyph unicode="&#xc7;" horiz-adv-x="775" d="M688 455q-4 38 -19.5 71t-43 57t-66 37.5t-87.5 13.5q-69 0 -125 -26.5t-95 -70t-60.5 -99.5t-21.5 -115q0 -53 17 -99.5t49 -81.5t77.5 -55.5t103.5 -20.5q43 0 81 11.5t68.5 31.5t54 47.5t38.5 59.5h100q-17 -47 -50.5 -85.5t-78.5 -68.5t-98.5 -49.5t-110.5 -26.5 l-8 -1l-4 -41q16 18 44 18q29 0 51.5 -20.5t22.5 -56.5q0 -20 -7.5 -38.5t-21.5 -33t-33.5 -23.5t-43.5 -9q-12 0 -27.5 3.5t-29.5 12.5t-24 25.5t-11 42.5h53q5 -37 39 -37q23 0 38 14.5t15 37.5q0 19 -11.5 30t-30.5 11q-11 0 -21.5 -5t-18.5 -19h-45l9 90q-68 8 -120 37 t-87.5 73.5t-54 100.5t-18.5 118q0 76 28 148.5t80 128t126.5 89.5t167.5 34q72 0 127.5 -20.5t94 -55.5t60 -83t24.5 -102h-96z" />
<glyph unicode="&#xc8;" horiz-adv-x="544" d="M234 618l-24 -229h302l-9 -82h-302l-23 -225h302l-9 -82h-393l74 700h393l-9 -82h-302zM237 873l48 68l235 -137l-49 -68z" />
<glyph unicode="&#xc9;" horiz-adv-x="544" d="M234 618l-24 -229h302l-9 -82h-302l-23 -225h302l-9 -82h-393l74 700h393l-9 -82h-302zM253 749l-35 69l263 137l35 -69z" />
<glyph unicode="&#xca;" horiz-adv-x="544" d="M234 618l-24 -229h302l-9 -82h-302l-23 -225h302l-9 -82h-393l74 700h393l-9 -82h-302zM378 957l165 -145l-60 -61l-115 102l-136 -101l-49 60z" />
<glyph unicode="&#xcb;" horiz-adv-x="544" d="M234 618l-24 -229h302l-9 -82h-302l-23 -225h302l-9 -82h-393l74 700h393l-9 -82h-302zM419 837q0 32 23 54.5t54 22.5q28 0 46 -19t18 -45q0 -32 -23.5 -54t-54.5 -22q-28 0 -45.5 18.5t-17.5 44.5zM189 837q0 16 6.5 30t17 24.5t24.5 16.5t29 6q28 0 46 -19t18 -46 q0 -31 -23 -53t-54 -22q-29 0 -46.5 18.5t-17.5 44.5z" />
<glyph unicode="&#xcc;" horiz-adv-x="250" d="M152 700h94l-74 -700h-94zM72 872l49 68l235 -137l-49 -68z" />
<glyph unicode="&#xcd;" horiz-adv-x="250" d="M151 700h94l-73 -700h-94zM99 735l-35 68l263 137l35 -68z" />
<glyph unicode="&#xce;" horiz-adv-x="250" d="M151 700h94l-73 -700h-94zM225 957l166 -145l-60 -61l-116 102l-135 -101l-50 60z" />
<glyph unicode="&#xcf;" horiz-adv-x="250" d="M152 700h94l-74 -700h-94zM267 837q0 16 6.5 30t17 24.5t24.5 16.5t29 6q28 0 46 -19t18 -46q0 -31 -23 -53t-54 -22q-29 0 -46.5 18.5t-17.5 44.5zM38 837q0 16 6.5 30t17 24.5t24.5 16.5t29 6q28 0 46 -19t18 -46q0 -31 -23 -53t-55 -22q-28 0 -45.5 18.5t-17.5 44.5z " />
<glyph unicode="&#xd0;" horiz-adv-x="697" d="M368 700q80 0 141.5 -27t103 -71.5t62.5 -102t21 -118.5q0 -71 -28 -139.5t-80.5 -122t-127 -86.5t-166.5 -33h-216l33 312h-115l8 77h115l33 311h216zM323 312h-121l-24 -230h125q69 0 124.5 25.5t94 67t59.5 94t21 107.5q0 46 -15.5 90t-46 77.5t-76 54t-105.5 20.5 h-125l-24 -229h121z" />
<glyph unicode="&#xd1;" horiz-adv-x="663" d="M511 159l57 541h91l-74 -700h-101l-258 541l-57 -541h-91l74 700h101zM236 853q23 14 40 21.5t29 11.5t21 4.5t17 0.5q11 0 30 -4t39.5 -9.5t40.5 -9.5t34 -4q5 0 11 1t14 4t20.5 8t31.5 14l28 -56q-20 -15 -38 -23t-32 -12t-23.5 -5t-13.5 -1q-15 0 -33.5 4t-38 9t-38 9 t-32.5 4q-16 0 -33.5 -6t-41.5 -18z" />
<glyph unicode="&#xd2;" horiz-adv-x="803" d="M404 -16q-80 0 -141 27.5t-102.5 73t-63 105.5t-21.5 125q0 77 29 149t81.5 128t126 90t162.5 34q79 0 140.5 -27t102.5 -73t62.5 -105.5t21.5 -124.5q0 -77 -29 -149.5t-81.5 -128.5t-125.5 -90t-162 -34zM411 66q65 0 119.5 26.5t93.5 70.5t60.5 100t21.5 116 q0 50 -15.5 96t-46 81.5t-75.5 56.5t-103 21q-65 0 -119 -26.5t-93 -70t-61 -99.5t-22 -116q0 -50 15.5 -96t46 -81.5t75.5 -57t103 -21.5zM363 886l49 69l234 -137l-49 -69z" />
<glyph unicode="&#xd3;" horiz-adv-x="803" d="M404 -16q-80 0 -141 27.5t-102.5 73t-63 105.5t-21.5 125q0 77 29 149t81.5 128t126 90t162.5 34q79 0 140.5 -27t102.5 -73t62.5 -105.5t21.5 -124.5q0 -77 -29 -149.5t-81.5 -128.5t-125.5 -90t-162 -34zM411 66q65 0 119.5 26.5t93.5 70.5t60.5 100t21.5 116 q0 50 -15.5 96t-46 81.5t-75.5 56.5t-103 21q-65 0 -119 -26.5t-93 -70t-61 -99.5t-22 -116q0 -50 15.5 -96t46 -81.5t75.5 -57t103 -21.5zM361 749l-35 69l264 137l35 -69z" />
<glyph unicode="&#xd4;" horiz-adv-x="803" d="M404 -16q-80 0 -141 27.5t-102.5 73t-63 105.5t-21.5 125q0 77 29 149t81.5 128t126 90t162.5 34q79 0 140.5 -27t102.5 -73t62.5 -105.5t21.5 -124.5q0 -77 -29 -149.5t-81.5 -128.5t-125.5 -90t-162 -34zM411 66q65 0 119.5 26.5t93.5 70.5t60.5 100t21.5 116 q0 50 -15.5 96t-46 81.5t-75.5 56.5t-103 21q-65 0 -119 -26.5t-93 -70t-61 -99.5t-22 -116q0 -50 15.5 -96t46 -81.5t75.5 -57t103 -21.5zM503 957l165 -145l-61 -61l-115 102l-136 -101l-48 60z" />
<glyph unicode="&#xd5;" horiz-adv-x="803" d="M404 -16q-80 0 -141 27.5t-102.5 73t-63 105.5t-21.5 125q0 77 29 149t81.5 128t126 90t162.5 34q79 0 140.5 -27t102.5 -73t62.5 -105.5t21.5 -124.5q0 -77 -29 -149.5t-81.5 -128.5t-125.5 -90t-162 -34zM411 66q65 0 119.5 26.5t93.5 70.5t60.5 100t21.5 116 q0 50 -15.5 96t-46 81.5t-75.5 56.5t-103 21q-65 0 -119 -26.5t-93 -70t-61 -99.5t-22 -116q0 -50 15.5 -96t46 -81.5t75.5 -57t103 -21.5zM312 853q23 14 40 21.5t29 11.5t21 4.5t17 0.5q11 0 30 -4t39.5 -9.5t40.5 -9.5t34 -4q5 0 11 1t14.5 4t21 8t30.5 14l28 -56 q-41 -29 -67 -35t-37 -6q-17 0 -36 4t-38.5 9t-37.5 9t-32 4q-16 0 -33.5 -6t-42.5 -18z" />
<glyph unicode="&#xd6;" horiz-adv-x="803" d="M404 -16q-80 0 -141 27.5t-102.5 73t-63 105.5t-21.5 125q0 77 29 149t81.5 128t126 90t162.5 34q79 0 140.5 -27t102.5 -73t62.5 -105.5t21.5 -124.5q0 -77 -29 -149.5t-81.5 -128.5t-125.5 -90t-162 -34zM171 322q0 -50 15.5 -96t46 -81.5t75.5 -57t103 -21.5 q65 0 119.5 26.5t93.5 70.5t60.5 100t21.5 116q0 50 -15.5 96t-46 81.5t-75.5 56.5t-103 21q-65 0 -119 -26.5t-93 -70t-61 -99.5t-22 -116zM369 774q-29 0 -46 18.5t-17 44.5q0 32 23 54.5t53 22.5q28 0 46 -19t18 -46q0 -31 -23 -53t-54 -22zM535 837q0 32 23 54.5 t54 22.5q28 0 45.5 -19t17.5 -46q0 -31 -23 -53t-54 -22q-28 0 -45.5 18.5t-17.5 44.5z" />
<glyph unicode="&#xd7;" horiz-adv-x="575" d="M447 459l56 -61l-129 -116l102 -113l-62 -54l-100 112l-127 -115l-55 61l126 115l-99 112l61 55l100 -112z" />
<glyph unicode="&#xd8;" horiz-adv-x="803" d="M400 -16q-59 0 -106 16l-41 -80l-75 32l42 80q-71 44 -107.5 120.5t-36.5 163.5q0 77 29 149t81.5 128t126.5 89.5t163 33.5q29 0 53.5 -3.5t47.5 -10.5l47 87l75 -33l-46 -86q36 -21 64 -52t47 -68.5t28.5 -80t9.5 -85.5q0 -76 -29 -148t-81.5 -128t-127 -90t-164.5 -34 zM410 66q66 0 120.5 26.5t93.5 70t60.5 99.5t21.5 115q0 63 -24.5 120t-72.5 90l-274 -510q17 -5 35.5 -8t39.5 -3zM171 323q0 -62 23.5 -117.5t68.5 -90.5l273 510q-30 9 -67 9q-66 0 -121 -26.5t-94.5 -70t-61 -99.5t-21.5 -115z" />
<glyph unicode="&#xd9;" horiz-adv-x="629" d="M145 700h91l-50 -473q-3 -32 4.5 -61.5t25 -51.5t44 -35t61.5 -13q34 0 64 13t52.5 34.5t36.5 51t17 62.5l50 473h91l-50 -473q-5 -50 -27 -94t-57.5 -77t-83 -52.5t-102.5 -19.5q-56 0 -98.5 19.5t-70.5 52.5t-40.5 77t-7.5 94zM273 886l49 69l235 -137l-49 -69z" />
<glyph unicode="&#xda;" horiz-adv-x="629" d="M145 700h91l-50 -473q-3 -32 4.5 -61.5t25 -51.5t44 -35t61.5 -13q34 0 64 13t52.5 34.5t36.5 51t17 62.5l50 473h91l-50 -473q-5 -50 -27 -94t-57.5 -77t-83 -52.5t-102.5 -19.5q-56 0 -98.5 19.5t-70.5 52.5t-40.5 77t-7.5 94zM271 749l-34 69l263 137l34 -69z" />
<glyph unicode="&#xdb;" horiz-adv-x="629" d="M145 700h91l-50 -473q-3 -32 4.5 -61.5t25 -51.5t44 -35t61.5 -13q34 0 64 13t52.5 34.5t36.5 51t17 62.5l50 473h91l-50 -473q-5 -50 -27 -94t-57.5 -77t-83 -52.5t-102.5 -19.5q-56 0 -98.5 19.5t-70.5 52.5t-40.5 77t-7.5 94zM411 958l165 -145l-60 -61l-115 101 l-136 -101l-49 61z" />
<glyph unicode="&#xdc;" horiz-adv-x="629" d="M145 700h91l-50 -473q-3 -32 4.5 -61.5t25 -51.5t44 -35t61.5 -13q34 0 64 13t52.5 34.5t36.5 51t17 62.5l50 473h91l-50 -473q-5 -50 -27 -94t-57.5 -77t-83 -52.5t-102.5 -19.5q-56 0 -98.5 19.5t-70.5 52.5t-40.5 77t-7.5 94zM446 837q0 16 6.5 30t17 24.5t24.5 16.5 t29 6q28 0 46 -19t18 -46q0 -31 -23 -53t-54 -22q-29 0 -46.5 18.5t-17.5 44.5zM217 837q0 16 6.5 30t17 24.5t24.5 16.5t29 6q28 0 46 -19t18 -46q0 -31 -23 -53t-55 -22q-28 0 -45.5 18.5t-17.5 44.5z" />
<glyph unicode="&#xdd;" horiz-adv-x="583" d="M234 0h-100l170 278l-220 422h106l171 -327l199 327h100zM304 744l-35 69l263 137l35 -69z" />
<glyph unicode="&#xde;" horiz-adv-x="500" d="M152 700h82l-14 -132h78q51 0 90 -17t65.5 -45t40 -64.5t13.5 -76.5q0 -46 -18 -89.5t-51 -77.5t-80.5 -54.5t-106.5 -20.5h-78l-13 -123h-82zM212 495l-31 -299h78q38 0 68.5 14t52 36.5t33 52t11.5 60.5q0 27 -8.5 51.5t-25.5 43t-42 30t-58 11.5h-78z" />
<glyph unicode="&#xdf;" horiz-adv-x="562" d="M217 76q18 -5 40 -7.5t39 -2.5q29 0 57 9.5t50 27.5t35.5 43.5t13.5 57.5q0 22 -7.5 44t-23.5 39.5t-41 28t-60 10.5h-43l8 78h40q37 0 64 11t45 28.5t26.5 40t8.5 46.5q0 50 -32.5 77.5t-83.5 27.5q-60 0 -98.5 -36.5t-44.5 -95.5l-53 -503h-86l53 503q4 45 23 83t50 66 t72 44t90 16q42 0 78 -12t63 -34.5t42 -55.5t15 -74q0 -66 -36.5 -110t-98.5 -61q51 -16 84 -55t33 -104q0 -52 -22 -92.5t-57.5 -68.5t-80.5 -42.5t-91 -14.5q-25 0 -46.5 3.5t-32.5 8.5z" />
<glyph unicode="&#xe0;" horiz-adv-x="597" d="M566 454l-47 -454h-86l8 79q-27 -42 -72.5 -66t-100.5 -24q-47 0 -84.5 17.5t-64.5 47t-41.5 68.5t-14.5 83q0 52 20 99.5t55 83.5t81 57t99 21q56 0 96 -24t58 -66l8 78h86zM288 67q37 0 68 14.5t53.5 38.5t35 56t12.5 67q0 30 -9 56t-27 46t-43.5 31.5t-58.5 11.5 q-37 0 -68 -14.5t-53.5 -39t-35.5 -56.5t-13 -67q0 -30 9.5 -56t27 -45.5t43.5 -31t59 -11.5zM199 640l49 68l235 -137l-50 -68z" />
<glyph unicode="&#xe1;" horiz-adv-x="597" d="M566 454l-47 -454h-86l8 79q-27 -42 -72.5 -66t-100.5 -24q-47 0 -84.5 17.5t-64.5 47t-41.5 68.5t-14.5 83q0 52 20 99.5t55 83.5t81 57t99 21q56 0 96 -24t58 -66l8 78h86zM288 67q37 0 68 14.5t53.5 38.5t35 56t12.5 67q0 30 -9 56t-27 46t-43.5 31.5t-58.5 11.5 q-37 0 -68 -14.5t-53.5 -39t-35.5 -56.5t-13 -67q0 -30 9.5 -56t27 -45.5t43.5 -31t59 -11.5zM204 503l-34 68l263 137l35 -68z" />
<glyph unicode="&#xe2;" horiz-adv-x="597" d="M566 454l-47 -454h-86l8 79q-27 -42 -72.5 -66t-100.5 -24q-47 0 -84.5 17.5t-64.5 47t-41.5 68.5t-14.5 83q0 52 20 99.5t55 83.5t81 57t99 21q56 0 96 -24t58 -66l8 78h86zM288 67q37 0 68 14.5t53.5 38.5t35 56t12.5 67q0 30 -9 56t-27 46t-43.5 31.5t-58.5 11.5 q-37 0 -68 -14.5t-53.5 -39t-35.5 -56.5t-13 -67q0 -30 9.5 -56t27 -45.5t43.5 -31t59 -11.5zM355 730l166 -145l-60 -61l-116 101l-135 -101l-49 61z" />
<glyph unicode="&#xe3;" horiz-adv-x="597" d="M566 454l-47 -454h-86l8 79q-27 -42 -72.5 -66t-100.5 -24q-47 0 -84.5 17.5t-64.5 47t-41.5 68.5t-14.5 83q0 52 20 99.5t55 83.5t81 57t99 21q56 0 96 -24t58 -66l8 78h86zM288 67q37 0 68 14.5t53.5 38.5t35 56t12.5 67q0 30 -9 56t-27 46t-43.5 31.5t-58.5 11.5 q-37 0 -68 -14.5t-53.5 -39t-35.5 -56.5t-13 -67q0 -30 9.5 -56t27 -45.5t43.5 -31t59 -11.5zM172 651q23 14 40 21.5t29 11.5t21 4.5t17 0.5q11 0 30 -4t39.5 -9.5t40.5 -9.5t34 -4q5 0 11 1t14.5 4t21 8t30.5 14l28 -56q-25 -17 -49.5 -29t-53.5 -12q-17 0 -36.5 4 t-39.5 9t-38 9t-32 4q-16 0 -33 -6t-42 -19z" />
<glyph unicode="&#xe4;" horiz-adv-x="597" d="M433 0l8 79q-27 -42 -72.5 -66t-100.5 -24q-47 0 -84.5 17.5t-64.5 47t-41.5 68.5t-14.5 83q0 52 20 99.5t55 83.5t81 57t99 21q56 0 96 -24t58 -66l8 78h86l-47 -454h-86zM220 540q-28 0 -46 18.5t-18 45.5q0 32 23 54t54 22q28 0 46 -18.5t18 -45.5q0 -32 -23 -54 t-54 -22zM450 540q-28 0 -46 18.5t-18 45.5q0 32 23 54t54 22q28 0 46 -18.5t18 -45.5q0 -32 -23 -54t-54 -22zM149 211q0 -30 9.5 -56t27 -45.5t43.5 -31t59 -11.5q37 0 68 14.5t53.5 38.5t35 56t12.5 67q0 30 -9 56t-27 46t-43.5 31.5t-58.5 11.5q-37 0 -68 -14.5 t-53.5 -39t-35.5 -56.5t-13 -67z" />
<glyph unicode="&#xe5;" horiz-adv-x="597" d="M566 454l-47 -454h-86l8 79q-27 -42 -72.5 -66t-100.5 -24q-47 0 -84.5 17.5t-64.5 47t-41.5 68.5t-14.5 83q0 52 20 99.5t55 83.5t81 57t99 21q56 0 96 -24t58 -66l8 78h86zM288 67q37 0 68 14.5t53.5 38.5t35 56t12.5 67q0 30 -9 56t-27 46t-43.5 31.5t-58.5 11.5 q-37 0 -68 -14.5t-53.5 -39t-35.5 -56.5t-13 -67q0 -30 9.5 -56t27 -45.5t43.5 -31t59 -11.5zM366 750q24 0 44.5 -9t35.5 -24t23.5 -35.5t8.5 -43.5q0 -27 -11 -51.5t-30 -42.5t-43 -29t-51 -11q-24 0 -44.5 9t-35.5 24.5t-23.5 36t-8.5 43.5q0 27 11 51t30 42.5t43 29 t51 10.5zM361 687q-26 0 -45.5 -19.5t-19.5 -45.5q0 -22 15 -37.5t38 -15.5q26 0 45.5 19.5t19.5 45.5q0 22 -15 37.5t-38 15.5z" />
<glyph unicode="&#xe6;" horiz-adv-x="914" d="M566 454l-4 -40q27 24 63 38t79 14q42 0 77 -14t60.5 -39.5t39.5 -60.5t14 -77q0 -19 -3 -35.5t-8 -35.5h-342q-6 -63 23.5 -102.5t98.5 -39.5q52 0 81 21.5t43 50.5h88q-9 -28 -28 -54t-47 -46.5t-64 -32.5t-79 -12q-51 0 -83 15.5t-52 36.5l-4 -41h-86l8 79 q-27 -42 -72.5 -66t-100.5 -24q-47 0 -84.5 17.5t-64.5 47t-41.5 68.5t-14.5 83q0 52 20 99.5t55 83.5t81 57t99 21q56 0 96 -24t58 -66l8 78h86zM693 392q-27 0 -51.5 -8t-43.5 -24t-31.5 -38.5t-16.5 -51.5h260q6 55 -27 88.5t-90 33.5zM288 67q37 0 68 14.5t53.5 38.5 t35 56t12.5 67q0 30 -9.5 56.5t-27.5 46t-44 31t-58 11.5q-37 0 -68 -14.5t-53.5 -39t-35 -56.5t-12.5 -67q0 -30 9.5 -56t27 -45.5t43.5 -31t59 -11.5z" />
<glyph unicode="&#xe7;" horiz-adv-x="529" d="M427 289q0 42 -26.5 70.5t-84.5 28.5q-42 0 -72.5 -15.5t-51 -40.5t-30.5 -57.5t-10 -66.5q0 -29 7.5 -55t24 -45t41.5 -30t61 -11q54 0 83.5 24t44.5 65h87q-8 -33 -26 -63.5t-46.5 -53t-66.5 -36.5t-85 -14l-7 -60q17 20 46 20t51.5 -20.5t22.5 -60.5q0 -19 -6.5 -37 t-21.5 -32.5t-39 -23.5t-59 -9q-8 0 -18 2t-19.5 10t-19 25.5t-17.5 49.5h53q2 -18 12.5 -29t28.5 -11q23 0 37.5 15t14.5 38q0 19 -11 30t-30 11q-11 0 -22 -5t-20 -20h-45l12 112q-40 8 -69 28t-48 47.5t-28.5 62t-9.5 70.5q0 49 16.5 96.5t49.5 85t81 60t111 22.5 q51 0 87.5 -15t60 -40t34 -56.5t9.5 -65.5h-87z" />
<glyph unicode="&#xe8;" horiz-adv-x="525" d="M153 204q-3 -29 2 -54.5t19.5 -45t39.5 -31t61 -11.5q52 0 81 21.5t43 50.5h88q-9 -29 -28 -55t-47 -46t-64.5 -32t-79.5 -12q-52 0 -90.5 17.5t-63.5 46.5t-37 68t-12 83q0 54 18 102t50 83.5t77.5 56t99.5 20.5q44 0 80 -14t61.5 -39t39.5 -60t14 -77q0 -20 -3 -36.5 t-8 -35.5h-341zM305 392q-54 0 -95 -31t-49 -91h260q6 56 -26.5 89t-89.5 33zM207 640l48 68l235 -137l-48 -68z" />
<glyph unicode="&#xe9;" horiz-adv-x="525" d="M153 204q-3 -29 2 -54.5t19.5 -45t39.5 -31t61 -11.5q52 0 81 21.5t43 50.5h88q-9 -29 -28 -55t-47 -46t-64.5 -32t-79.5 -12q-52 0 -90.5 17.5t-63.5 46.5t-37 68t-12 83q0 54 18 102t50 83.5t77.5 56t99.5 20.5q44 0 80 -14t61.5 -39t39.5 -60t14 -77q0 -20 -3 -36.5 t-8 -35.5h-341zM305 392q-54 0 -95 -31t-49 -91h260q6 56 -26.5 89t-89.5 33zM207 503l-34 68l263 137l34 -68z" />
<glyph unicode="&#xea;" horiz-adv-x="525" d="M153 204q-3 -29 2 -54.5t19.5 -45t39.5 -31t61 -11.5q52 0 81 21.5t43 50.5h88q-9 -29 -28 -55t-47 -46t-64.5 -32t-79.5 -12q-52 0 -90.5 17.5t-63.5 46.5t-37 68t-12 83q0 54 18 102t50 83.5t77.5 56t99.5 20.5q44 0 80 -14t61.5 -39t39.5 -60t14 -77q0 -20 -3 -36.5 t-8 -35.5h-341zM305 392q-54 0 -95 -31t-49 -91h260q6 56 -26.5 89t-89.5 33zM341 730l166 -145l-60 -61l-116 101l-135 -101l-49 61z" />
<glyph unicode="&#xeb;" horiz-adv-x="525" d="M153 204q-3 -29 2 -54.5t19.5 -45t39.5 -31t61 -11.5q52 0 81 21.5t43 50.5h88q-9 -29 -28 -55t-47 -46t-64.5 -32t-79.5 -12q-52 0 -90.5 17.5t-63.5 46.5t-37 68t-12 83q0 54 18 102t50 83.5t77.5 56t99.5 20.5q44 0 80 -14t61.5 -39t39.5 -60t14 -77q0 -20 -3 -36.5 t-8 -35.5h-341zM305 392q-54 0 -95 -31t-49 -91h260q6 56 -26.5 89t-89.5 33zM373 604q0 32 23 54t54 22q28 0 46 -18.5t18 -45.5q0 -32 -23 -54t-54 -22q-28 0 -46 18.5t-18 45.5zM144 604q0 32 23 54t54 22q28 0 46 -19t18 -45q0 -16 -6.5 -29.5t-17.5 -24t-25 -16.5 t-29 -6q-27 0 -45 18t-18 46z" />
<glyph unicode="&#xec;" horiz-adv-x="276" d="M143 454h86l-48 -454h-86zM62 655l48 68l235 -137l-48 -68z" />
<glyph unicode="&#xed;" horiz-adv-x="276" d="M142 454h87l-48 -454h-87zM89 518l-34 68l263 137l34 -68z" />
<glyph unicode="&#xee;" horiz-adv-x="276" d="M142 454h87l-47 -454h-87zM214 730l165 -145l-60 -61l-116 101l-135 -101l-49 61z" />
<glyph unicode="&#xef;" horiz-adv-x="276" d="M134 454h87l-48 -454h-87zM247 604q0 32 22.5 54t53.5 22q28 0 46.5 -18.5t18.5 -45.5q0 -32 -23.5 -54t-54.5 -22q-28 0 -45.5 18.5t-17.5 45.5zM17 604q0 32 22.5 54t54.5 22q28 0 46.5 -18.5t18.5 -45.5q0 -32 -24 -54t-55 -22q-28 0 -45.5 18.5t-17.5 45.5z" />
<glyph unicode="&#xf0;" d="M283 -11q-51 0 -91.5 17.5t-68.5 47t-42.5 68.5t-14.5 83q0 52 20 99.5t55.5 83.5t83 57t102.5 21q14 0 23.5 -2t17.5 -10l-38 75l-119 -60l-27 65l112 58l-55 108h105l32 -66l93 47l28 -66l-88 -44l102 -196q15 -29 24.5 -61t9.5 -68q0 -51 -20 -97.5t-55 -82 t-83.5 -56.5t-105.5 -21zM291 67q37 0 68 14.5t53.5 38.5t35 56t12.5 67q0 30 -9 56t-27 46t-43.5 31.5t-58.5 11.5q-37 0 -68 -14.5t-53.5 -39t-35.5 -56.5t-13 -67q0 -30 9.5 -56t27 -45.5t43.5 -31t59 -11.5z" />
<glyph unicode="&#xf1;" d="M126 454h87l-9 -80q25 42 68 67t103 25q44 0 76.5 -15t52.5 -45q18 -28 21.5 -60.5t-1.5 -77.5l-28 -268h-87l25 241q3 31 0 58.5t-14.5 47t-32 31t-51.5 11.5q-33 0 -59 -13t-44.5 -34.5t-29 -49.5t-13.5 -58l-25 -234h-87zM172 651q23 14 40 21.5t29 11.5t21 4.5 t17 0.5q11 0 30 -4t40 -9.5t41 -9.5t34 -4q5 0 11 1t14 4t20.5 8t30.5 14l30 -56q-24 -15 -49.5 -28t-55.5 -13q-17 0 -36 4t-38.5 9t-38 9t-32.5 4q-16 0 -33 -6t-43 -19z" />
<glyph unicode="&#xf2;" horiz-adv-x="560" d="M280 -11q-52 0 -92.5 17t-68 46.5t-42 68.5t-14.5 83q0 52 19.5 99.5t55 83.5t83.5 57.5t105 21.5q51 0 91.5 -17.5t68.5 -47t43 -69t15 -83.5q0 -52 -19.5 -99t-55 -83t-84 -57t-105.5 -21zM288 67q37 0 68 14.5t53.5 38.5t35 56t12.5 67q0 30 -9 56t-27 46t-43.5 31.5 t-58.5 11.5q-37 0 -68 -14.5t-53.5 -39t-35.5 -56.5t-13 -67q0 -30 9.5 -56t27 -45.5t43.5 -31t59 -11.5zM209 640l48 68l235 -137l-49 -68z" />
<glyph unicode="&#xf3;" horiz-adv-x="560" d="M280 -11q-52 0 -92.5 17t-68 46.5t-42 68.5t-14.5 83q0 52 19.5 99.5t55 83.5t83.5 57.5t105 21.5q51 0 91.5 -17.5t68.5 -47t43 -69t15 -83.5q0 -52 -19.5 -99t-55 -83t-84 -57t-105.5 -21zM288 67q37 0 68 14.5t53.5 38.5t35 56t12.5 67q0 30 -9 56t-27 46t-43.5 31.5 t-58.5 11.5q-37 0 -68 -14.5t-53.5 -39t-35.5 -56.5t-13 -67q0 -30 9.5 -56t27 -45.5t43.5 -31t59 -11.5zM206 503l-33 68l263 137l34 -68z" />
<glyph unicode="&#xf4;" horiz-adv-x="560" d="M280 -11q-52 0 -92.5 17t-68 46.5t-42 68.5t-14.5 83q0 52 19.5 99.5t55 83.5t83.5 57.5t105 21.5q51 0 91.5 -17.5t68.5 -47t43 -69t15 -83.5q0 -52 -19.5 -99t-55 -83t-84 -57t-105.5 -21zM288 67q37 0 68 14.5t53.5 38.5t35 56t12.5 67q0 30 -9 56t-27 46t-43.5 31.5 t-58.5 11.5q-37 0 -68 -14.5t-53.5 -39t-35.5 -56.5t-13 -67q0 -30 9.5 -56t27 -45.5t43.5 -31t59 -11.5zM356 730l166 -145l-60 -61l-116 101l-135 -100l-49 60z" />
<glyph unicode="&#xf5;" horiz-adv-x="560" d="M280 -11q-52 0 -92.5 17t-68 46.5t-42 68.5t-14.5 83q0 52 19.5 99.5t55 83.5t83.5 57.5t105 21.5q51 0 91.5 -17.5t68.5 -47t43 -69t15 -83.5q0 -52 -19.5 -99t-55 -83t-84 -57t-105.5 -21zM288 67q37 0 68 14.5t53.5 38.5t35 56t12.5 67q0 30 -9 56t-27 46t-43.5 31.5 t-58.5 11.5q-37 0 -68 -14.5t-53.5 -39t-35.5 -56.5t-13 -67q0 -30 9.5 -56t27 -45.5t43.5 -31t59 -11.5zM160 632q23 14 40 21.5t29 11.5t21 4.5t17 0.5q11 0 30 -4t39.5 -9.5t40.5 -9.5t34 -4q5 0 11 1t14.5 4t21 8t30.5 14l29 -56q-23 -15 -48.5 -28t-54.5 -13 q-17 0 -36.5 4t-39 9t-37.5 9t-32 4q-16 0 -33.5 -6t-43.5 -18z" />
<glyph unicode="&#xf6;" horiz-adv-x="560" d="M222 540q-28 0 -46 18.5t-18 45.5q0 32 23 54t54 22q28 0 46 -18.5t18 -45.5q0 -32 -23 -54t-54 -22zM388 604q0 16 6.5 29.5t17 24t24.5 16.5t29 6q28 0 46 -18.5t18 -45.5q0 -16 -6.5 -29.5t-17.5 -24t-25 -16.5t-29 -6q-28 0 -45.5 19t-17.5 45zM288 67q37 0 68 14.5 t53.5 38.5t35 56t12.5 67q0 30 -9 56t-27 46t-43.5 31.5t-58.5 11.5q-37 0 -68 -14.5t-53.5 -39t-35.5 -56.5t-13 -67q0 -30 9.5 -56t27 -45.5t43.5 -31t59 -11.5zM280 -11q-52 0 -92.5 17t-68 46.5t-42 68.5t-14.5 83q0 52 19.5 99.5t55 83.5t83.5 57.5t105 21.5 q51 0 91.5 -17.5t68.5 -47t43 -69t15 -83.5q0 -52 -19.5 -99t-55 -83t-84 -57t-105.5 -21z" />
<glyph unicode="&#xf7;" horiz-adv-x="575" d="M107 196l8 77h404l-8 -77h-404zM259 387q0 32 23 54t54 22q28 0 46 -18.5t18 -45.5q0 -32 -23 -54t-54 -22q-28 0 -46 18.5t-18 45.5zM227 79q0 32 23 54t54 22q28 0 46 -18.5t18 -45.5q0 -32 -23 -54t-54 -22q-28 0 -46 18.5t-18 45.5z" />
<glyph unicode="&#xf8;" horiz-adv-x="560" d="M452 431q45 -29 68.5 -77t23.5 -105q0 -52 -20 -99t-55 -83t-84 -57t-106 -21q-18 0 -32 2t-28 6l-41 -77l-70 32l39 75q-40 29 -62 76t-22 102q0 52 20 99.5t55 83.5t83 57t105 21q14 0 25.5 -1.5t28.5 -4.5l40 75l70 -32zM287 67q37 0 68.5 14.5t54 38.5t35 55.5 t12.5 65.5t-12 63t-35 48l-151 -282q12 -3 28 -3zM149 212q0 -32 10.5 -59.5t30.5 -46.5l150 280q-5 2 -10.5 2h-10.5q-37 0 -68.5 -14.5t-54 -38.5t-35 -56t-12.5 -67z" />
<glyph unicode="&#xf9;" d="M487 0h-87l9 81q-25 -42 -68.5 -67t-103.5 -25q-43 0 -76 14.5t-53 44.5q-17 25 -20.5 57.5t1.5 80.5l28 268h87l-25 -240q-3 -32 0 -59t14 -46.5t31.5 -31t51.5 -11.5q33 0 59 12.5t44.5 34t29.5 49.5t14 59l24 233h88zM205 640l49 68l235 -137l-49 -68z" />
<glyph unicode="&#xfa;" d="M487 0h-87l9 81q-25 -42 -68.5 -67t-103.5 -25q-43 0 -76 14.5t-53 44.5q-17 25 -20.5 57.5t1.5 80.5l28 268h87l-25 -240q-3 -32 0 -59t14 -46.5t31.5 -31t51.5 -11.5q33 0 59 12.5t44.5 34t29.5 49.5t14 59l24 233h88zM228 503l-34 68l263 137l34 -68z" />
<glyph unicode="&#xfb;" d="M487 0h-87l9 81q-25 -42 -68.5 -67t-103.5 -25q-43 0 -76 14.5t-53 44.5q-17 25 -20.5 57.5t1.5 80.5l28 268h87l-25 -240q-3 -32 0 -59t14 -46.5t31.5 -31t51.5 -11.5q33 0 59 12.5t44.5 34t29.5 49.5t14 59l24 233h88zM353 730l166 -145l-61 -61l-115 101l-136 -101 l-48 61z" />
<glyph unicode="&#xfc;" d="M487 0h-87l9 81q-25 -42 -68.5 -67t-103.5 -25q-43 0 -76 14.5t-53 44.5q-17 25 -20.5 57.5t1.5 80.5l28 268h87l-25 -240q-3 -32 0 -59t14 -46.5t31.5 -31t51.5 -11.5q33 0 59 12.5t44.5 34t29.5 49.5t14 59l24 233h88zM388 604q0 32 23 54t54 22q27 0 45.5 -18.5 t18.5 -45.5q0 -32 -24 -54t-55 -22q-27 0 -44.5 18.5t-17.5 45.5zM158 604q0 32 23 54t54 22q28 0 46 -18.5t18 -45.5q0 -32 -23 -54t-54 -22q-28 0 -46 18.5t-18 45.5z" />
<glyph unicode="&#xfd;" horiz-adv-x="573" d="M257 -256q-56 0 -94.5 15t-61.5 41.5t-31.5 62.5t-5.5 78h85q-5 -53 20.5 -86.5t94.5 -33.5q64 0 100 33.5t44 113.5l12 113q-26 -42 -68.5 -67t-103.5 -25q-47 0 -79 15t-50 43q-17 26 -20.5 59t1.5 83l28 265h87l-25 -238q-3 -32 -0.5 -59.5t13 -47.5t31 -31.5 t53.5 -11.5q34 0 60.5 12.5t44.5 34t28.5 49.5t13.5 59l24 233h88l-51 -486q-6 -60 -26 -102.5t-51 -69.5t-72 -39.5t-89 -12.5zM239 503l-35 68l263 137l35 -68z" />
<glyph unicode="&#xfe;" horiz-adv-x="594" d="M52 -246l99 946h87l-34 -324q27 42 72 66t100 24q46 0 84 -17.5t65 -47t42 -68.5t15 -83q0 -52 -20 -99t-54.5 -83t-81 -57.5t-99.5 -21.5q-59 0 -98 25.5t-56 64.5l-34 -325h-87zM326 67q37 0 68 14.5t53.5 39t35 56t12.5 66.5q0 29 -9 55.5t-26.5 46.5t-43 31.5 t-58.5 11.5q-36 0 -67.5 -14.5t-54 -38.5t-35.5 -56t-13 -68q0 -30 9.5 -56t27 -45.5t43 -31t58.5 -11.5z" />
<glyph unicode="&#xff;" horiz-adv-x="573" d="M257 -256q-56 0 -94.5 15t-61.5 41.5t-31.5 62.5t-5.5 78h85q-5 -53 20.5 -86.5t94.5 -33.5q64 0 100 33.5t44 113.5l12 113q-26 -42 -68.5 -67t-103.5 -25q-47 0 -79 15t-50 43q-17 26 -20.5 59t1.5 83l28 265h87l-25 -238q-3 -32 -0.5 -59.5t13 -47.5t31 -31.5 t53.5 -11.5q34 0 60.5 12.5t44.5 34t28.5 49.5t13.5 59l24 233h88l-51 -486q-6 -60 -26 -102.5t-51 -69.5t-72 -39.5t-89 -12.5zM407 603q0 31 22 52.5t52 21.5q27 0 44 -18t17 -44q0 -30 -22.5 -51t-52.5 -21q-26 0 -43 17t-17 43zM178 603q0 15 6 28.5t16.5 23.5t23.5 16 t28 6q26 0 43 -18t17 -44q0 -30 -22.5 -51t-51.5 -21q-26 0 -43 17t-17 43z" />
<glyph unicode="&#x152;" horiz-adv-x="1133" d="M824 618l-24 -229h301l-8 -82h-301l-24 -225h301l-9 -82h-392l12 110q-49 -57 -119.5 -92.5t-160.5 -35.5q-78 0 -138 27.5t-101.5 73.5t-63 106t-21.5 125q0 76 29 148.5t81.5 128.5t126 90t162.5 34q93 0 155.5 -35.5t99.5 -92.5l12 113h392l-9 -82h-301zM412 65 q65 0 119 26.5t93 70t60.5 99.5t21.5 116q0 50 -15.5 96t-46 81.5t-75.5 56.5t-103 21q-65 0 -119 -26.5t-93 -70t-61 -99.5t-22 -116q0 -50 15.5 -96t46.5 -81t75.5 -56.5t103.5 -21.5z" />
<glyph unicode="&#x153;" horiz-adv-x="914" d="M542 204q-3 -30 2.5 -56t20.5 -45t40 -30t60 -11q51 0 80 21.5t43 50.5h88q-9 -29 -28.5 -55t-47.5 -46t-64 -32t-79 -12q-67 0 -110.5 27.5t-64.5 71.5q-34 -45 -86.5 -72t-117.5 -27q-51 0 -90.5 17.5t-67.5 47t-42.5 68.5t-14.5 83q0 52 19.5 99t55 83t84 57.5 t105.5 21.5q68 0 113 -28t70 -71q33 48 84 73.5t109 25.5q43 0 78 -14t60.5 -39t39.5 -60.5t14 -77.5q0 -19 -3 -35.5t-8 -35.5h-342zM694 392q-54 0 -95 -31t-49 -91h260q6 56 -26.5 89t-89.5 33zM287 67q36 0 67.5 14t54 38t35.5 56t13 68q0 31 -9.5 57.5t-27.5 46 t-43.5 30.5t-57.5 11q-37 0 -68.5 -14.5t-54 -39t-35 -56.5t-12.5 -67q0 -30 9.5 -56t27 -45.5t43 -31t58.5 -11.5z" />
<glyph unicode="&#x178;" horiz-adv-x="583" d="M234 0h-100l170 278l-220 422h106l171 -327l199 327h100zM453 837q0 15 6 28.5t16.5 23.5t23.5 16t28 6q27 0 43.5 -18t16.5 -44q0 -30 -21.5 -51t-51.5 -21q-27 0 -44 17t-17 43zM224 837q0 31 21.5 52.5t51.5 21.5q26 0 43.5 -18t17.5 -44q0 -30 -22 -51t-52 -21 q-27 0 -43.5 17t-16.5 43z" />
<glyph unicode="&#x2c6;" horiz-adv-x="469" d="M320 842l165 -145l-60 -61l-116 101l-135 -100l-49 60z" />
<glyph unicode="&#x2dc;" horiz-adv-x="498" d="M144 662q23 14 40 21.5t29 11.5t21 4.5t17 0.5q11 0 30 -4t39.5 -9.5t40.5 -9.5t34 -4q5 0 11 1t14.5 4t21 8t30.5 14l28 -56q-25 -17 -49.5 -29t-53.5 -12q-17 0 -36.5 4t-39 9t-37.5 9t-32 4q-16 0 -33.5 -6t-42.5 -18z" />
<glyph unicode="&#x2000;" horiz-adv-x="488" />
<glyph unicode="&#x2001;" horiz-adv-x="976" />
<glyph unicode="&#x2002;" horiz-adv-x="488" />
<glyph unicode="&#x2003;" horiz-adv-x="976" />
<glyph unicode="&#x2004;" horiz-adv-x="325" />
<glyph unicode="&#x2005;" horiz-adv-x="244" />
<glyph unicode="&#x2006;" horiz-adv-x="162" />
<glyph unicode="&#x2007;" horiz-adv-x="162" />
<glyph unicode="&#x2008;" horiz-adv-x="122" />
<glyph unicode="&#x2009;" horiz-adv-x="195" />
<glyph unicode="&#x200a;" horiz-adv-x="54" />
<glyph unicode="&#x2010;" horiz-adv-x="294" d="M290 246h-234l8 78h234z" />
<glyph unicode="&#x2011;" horiz-adv-x="294" d="M290 246h-234l8 78h234z" />
<glyph unicode="&#x2012;" horiz-adv-x="294" d="M290 246h-234l8 78h234z" />
<glyph unicode="&#x2013;" horiz-adv-x="503" d="M76 246l8 78h403l-8 -78h-403z" />
<glyph unicode="&#x2014;" horiz-adv-x="1006" d="M76 246l8 78h906l-8 -78h-906z" />
<glyph unicode="&#x2018;" horiz-adv-x="269" d="M269 573q0 -31 -22 -52.5t-56 -21.5q-32 0 -50.5 22t-18.5 70q0 71 42 110t117 39l-4 -42q-29 0 -45.5 -8t-27.5 -22q-9 -11 -13.5 -22.5t-5.5 -19.5q9 7 26 7q26 0 42 -17t16 -43z" />
<glyph unicode="&#x2019;" horiz-adv-x="269" d="M130 666q0 30 22 52t57 22q32 0 50 -22.5t18 -70.5q0 -73 -42.5 -110.5t-116.5 -37.5l5 41q30 0 45.5 9t26.5 22q9 11 13 21.5t5 20.5q-5 -7 -24 -7q-26 0 -42.5 17t-16.5 43z" />
<glyph unicode="&#x201a;" horiz-adv-x="269" d="M66 49q0 30 21.5 52.5t56.5 22.5q32 0 50 -22.5t18 -70.5q0 -74 -43 -111.5t-115 -37.5l4 42q33 0 49 9.5t24 20.5q16 21 18 42q-5 -7 -25 -7q-26 0 -42 17t-16 43z" />
<glyph unicode="&#x201c;" horiz-adv-x="444" d="M444 573q0 -31 -22 -52.5t-57 -21.5q-32 0 -50 22t-18 70q0 74 43 111.5t115 37.5l-4 -42q-32 0 -47.5 -9.5t-24.5 -20.5t-13 -20.5t-6 -21.5q7 7 25 7q26 0 42.5 -17t16.5 -43zM269 573q0 -31 -22 -52.5t-56 -21.5q-32 0 -50.5 22t-18.5 70q0 71 42 110t117 39l-4 -42 q-29 0 -45.5 -8t-27.5 -22q-9 -11 -13.5 -22.5t-5.5 -19.5q9 7 26 7q26 0 42 -17t16 -43z" />
<glyph unicode="&#x201d;" horiz-adv-x="444" d="M130 666q0 30 22 52t57 22q32 0 50 -22.5t18 -70.5q0 -73 -42.5 -110.5t-116.5 -37.5l5 41q30 0 45.5 9t26.5 22q9 11 13 21.5t5 20.5q-5 -7 -24 -7q-26 0 -42.5 17t-16.5 43zM305 666q0 30 22 52t56 22q32 0 50.5 -22.5t18.5 -70.5q0 -72 -42.5 -110t-117.5 -38l5 41 q34 0 49 10.5t23 20.5q8 11 13 20.5t6 21.5q-7 -7 -25 -7q-26 0 -42 17t-16 43z" />
<glyph unicode="&#x201e;" horiz-adv-x="444" d="M66 49q0 30 21.5 52.5t56.5 22.5q32 0 50 -22.5t18 -70.5q0 -74 -43 -111.5t-115 -37.5l4 42q33 0 49 9.5t24 20.5q16 21 18 42q-5 -7 -25 -7q-26 0 -42 17t-16 43zM241 49q0 31 21.5 53t55.5 22q32 0 50.5 -22.5t18.5 -70.5q0 -71 -42 -110t-117 -39l4 42q32 0 48 9.5 t25 20.5q10 12 14 22.5t5 19.5q-7 -7 -26 -7q-26 0 -41.5 17t-15.5 43z" />
<glyph unicode="&#x2022;" horiz-adv-x="348" d="M90 302q0 26 10.5 49t28.5 40.5t41 27.5t49 10q46 0 75.5 -31t29.5 -76q0 -26 -10.5 -49t-28 -40t-41 -27t-48.5 -10q-47 0 -76.5 30.5t-29.5 75.5z" />
<glyph unicode="&#x2026;" horiz-adv-x="939" d="M64 59q0 32 23 54t54 22q28 0 46 -19t18 -45q0 -16 -6.5 -29.5t-17.5 -24t-25 -16.5t-29 -6q-27 0 -45 18t-18 46zM406 58q0 16 6.5 29.5t17 24t24.5 16.5t29 6q28 0 46 -18.5t18 -45.5q0 -16 -6.5 -29.5t-17.5 -24t-25 -16.5t-29 -6q-28 0 -45.5 19t-17.5 45zM748 57 q0 32 23 54t54 22q27 0 45.5 -18.5t18.5 -45.5q0 -16 -6.5 -29.5t-17.5 -24t-25 -16.5t-29 -6q-28 0 -45.5 18.5t-17.5 45.5z" />
<glyph unicode="&#x202f;" horiz-adv-x="195" />
<glyph unicode="&#x2039;" horiz-adv-x="276" d="M246 98l-178 167l6 53l213 167l-9 -86l-137 -108l114 -108z" />
<glyph unicode="&#x203a;" horiz-adv-x="276" d="M59 183l137 108l-114 108l9 86l178 -167l-5 -53l-214 -167z" />
<glyph unicode="&#x205f;" horiz-adv-x="244" />
<glyph unicode="&#x20ac;" horiz-adv-x="593" d="M578 228q-5 -48 -27 -91.5t-56.5 -76.5t-81 -52t-100.5 -19q-55 0 -97 19t-69.5 52t-40 76.5t-7.5 91.5l1 10h-63l23 67h47l9 89h-62l24 66h45l1 11q4 48 25.5 91.5t56.5 76.5t81.5 52.5t101.5 19.5q51 0 92 -17.5t68.5 -47t42 -69.5t13.5 -85h-92q0 28 -9 53t-26 43.5 t-42 29t-56 10.5q-34 0 -63 -12.5t-50.5 -34t-35 -50t-16.5 -60.5l-1 -11h229l-24 -66h-212l-9 -89h227l-23 -67h-211l-1 -10q-3 -32 4 -60.5t24 -50t43 -34t60 -12.5t63 12.5t50.5 34t35.5 50t17 60.5h91z" />
<glyph unicode="&#x2122;" horiz-adv-x="811" d="M453 700h87l80 -302l142 302h82l-43 -407h-54l34 322l-153 -322h-40l-87 334l-36 -334h-55zM377 700l-5 -50h-105l-38 -357h-55l38 357h-104l5 50h264z" />
<glyph unicode="&#xe000;" horiz-adv-x="455" d="M0 455h455v-455h-455v455z" />
<glyph unicode="&#xfb01;" horiz-adv-x="623" d="M401 620q-11 4 -22.5 6t-31.5 2q-12 0 -25.5 -2t-25.5 -10.5t-21 -26t-12 -47.5l-9 -88h130l-8 -73h-130l-40 -381h-87l40 381h-98l8 73h98l8 79q6 61 26.5 96t45.5 52t51 21t44 4q27 0 42.5 -3.5t24.5 -8.5zM489 454h87l-48 -454h-87zM483 619q0 31 22 52.5t52 21.5 q26 0 43.5 -18t17.5 -44q0 -30 -22.5 -51t-52.5 -21q-26 0 -43 17t-17 43z" />
<glyph unicode="&#xfb02;" horiz-adv-x="590" d="M401 620q-11 4 -22.5 6t-31.5 2q-12 0 -25.5 -2t-25.5 -10.5t-21 -26t-12 -47.5l-9 -88h130l-8 -73h-130l-40 -381h-87l40 381h-98l8 73h98l8 79q6 61 26.5 96t45.5 52t51 21t44 4q27 0 42.5 -3.5t24.5 -8.5zM499 700h87l-74 -700h-87z" />
<glyph unicode="&#xfb03;" horiz-adv-x="970" d="M837 454h86l-48 -454h-86zM827 620q0 32 23.5 54.5t54.5 22.5q28 0 45.5 -19t17.5 -46q0 -31 -22.5 -53t-53.5 -22q-29 0 -47 18.5t-18 44.5zM748 620q-11 4 -22.5 6t-31.5 2q-12 0 -25.5 -2t-25.5 -10.5t-21 -26t-12 -47.5l-9 -88h130l-8 -73h-130l-40 -381h-87l40 381 h-98l8 73h98l8 79q6 61 26.5 96t45.5 52t51 21t44 4q27 0 42.5 -3.5t24.5 -8.5zM401 620q-11 4 -22.5 6t-31.5 2q-12 0 -25.5 -2t-25.5 -10.5t-21 -26t-12 -47.5l-9 -88h130l-8 -73h-130l-40 -381h-87l40 381h-98l8 73h98l8 79q6 61 26.5 96t45.5 52t51 21t44 4 q27 0 42.5 -3.5t24.5 -8.5z" />
<glyph unicode="&#xfb04;" horiz-adv-x="937" d="M846 700h87l-74 -700h-87zM748 620q-11 4 -22.5 6t-31.5 2q-12 0 -25.5 -2t-25.5 -10.5t-21 -26t-12 -47.5l-9 -88h130l-8 -73h-130l-40 -381h-87l40 381h-98l8 73h98l8 79q6 61 26.5 96t45.5 52t51 21t44 4q27 0 42.5 -3.5t24.5 -8.5zM401 620q-11 4 -22.5 6t-31.5 2 q-12 0 -25.5 -2t-25.5 -10.5t-21 -26t-12 -47.5l-9 -88h130l-8 -73h-130l-40 -381h-87l40 381h-98l8 73h98l8 79q6 61 26.5 96t45.5 52t51 21t44 4q27 0 42.5 -3.5t24.5 -8.5z" />
</font>
</defs>
</svg>
